<svg width="3000" height="1052.999952" xmlns="http://www.w3.org/2000/svg" version="1.0" preserveAspectRatio="xMidYMid meet" zoomAndPan="magnify">
 <defs>
  <g id="svg_1"/>
 </defs>
 <g>
  <title>Layer 1</title>
  <path id="svg_4" stroke-miterlimit="4" stroke-width="5.78007" stroke="#ffffff" d="m432.34772,914.89063c0,-2.95709 0.12494,-7.76563 0.37097,-14.42572c0.36731,-6.53516 0.92206,-13.07037 1.66412,-19.60547c0.73834,-6.53516 1.35547,-10.60162 1.84772,-12.20313c-3.57422,0.49207 -5.60938,1.35541 -6.10156,2.586c-0.49219,1.35931 -1.72656,3.8241 -3.69922,7.39832c-3.08203,6.5351 -4.25397,13.19531 -3.51563,19.97662c0.74207,6.78119 3.8866,12.20703 9.43359,16.27338zm60.664,-703.73042c0,-14.67189 1.10944,-28.66801 3.32819,-41.98445c2.34369,-13.43744 3.51563,-27.24994 3.51563,-41.42577c0,-5.55079 0.49219,-12.33198 1.47656,-20.34762c0.98828,-8.13675 1.72656,-15.47269 2.2226,-22.00783c1.10944,-7.02736 1.53912,-12.14452 1.29297,-15.35158c-0.24609,-3.32808 0.37109,-5.85545 1.84766,-7.58201c1.48047,-1.84767 4.75006,-4.31645 9.80475,-7.39846c4.06647,2.09767 7.45703,4.4414 10.17188,7.02736c2.83594,2.46877 4.25397,6.96877 4.25397,13.5039c0,24.16409 -0.67975,44.87889 -2.03522,62.14067c-1.23444,17.14055 -2.83594,36.80466 -4.80853,58.99995c4.07031,-0.98828 9.24603,-2.83595 15.53497,-5.54686c6.28906,-2.83595 11.71497,-4.99614 16.27747,-6.47655c33.90631,-13.68361 70.4024,-27.06256 109.48822,-40.13283c39.08606,-13.19139 76.81653,-23.0547 113.1875,-29.58984c8.14075,-2.09767 22.6875,-4.8711 43.64844,-8.32422c20.96106,-3.57424 44.44934,-6.71877 70.46887,-9.43361c26.0155,-2.83595 50.85938,-4.25394 74.53125,-4.25394c25.27734,0 46.60938,2.28131 63.99219,6.84383c17.5116,4.56241 26.2655,13.13279 26.2655,25.70701c0,14.17966 -5.17957,24.96872 -15.53516,32.36719c-10.35925,7.27342 -20.59375,11.40623 -30.70313,12.39058c2.46484,-7.02736 6.47266,-14.17966 12.02344,-21.45308c5.547,-7.39847 8.87512,-14.42583 9.98438,-21.08208c-6.65625,-0.98827 -12.6366,-2.22261 -17.9375,-3.69917c-5.30457,-1.4805 -12.20703,-2.22272 -20.71472,-2.22272c-25.76953,0 -48.14856,0.24999 -67.13684,0.74222c-18.86719,0.49222 -36.80469,1.78908 -53.82031,3.88281c-16.8905,1.97263 -34.71094,4.74606 -53.4491,8.32422c-18.62109,3.45313 -40.56653,8.19917 -65.84387,14.23825c-3.453,0.98828 -11.28113,3.3907 -23.48816,7.21484c-12.08215,3.82039 -26.75781,8.38281 -44.01953,13.68753c-17.13684,5.3008 -34.95325,11.09372 -53.44934,17.3828c-18.37109,6.28908 -35.75781,12.51563 -52.15625,18.67975c-16.39844,6.04291 -30.02338,11.46877 -40.87097,16.27733c-10.85162,4.68353 -17.01575,8.5703 -18.49609,11.6523l-24.23059,237.8438c-0.49213,6.53513 -1.41791,14.11722 -2.77338,22.75003c-1.23041,8.62888 -1.84772,16.70703 -1.84772,24.2265c5.54694,-0.98431 14.24231,-3.88281 26.07825,-8.69141c11.95697,-4.80856 21.6991,-8.19925 29.2226,-10.17188c9.12109,-3.08203 20.96088,-6.59769 35.50775,-10.54291c14.672,-4.07037 29.46875,-7.89069 44.38684,-11.46875c14.92188,-3.57425 26.94141,-5.85556 36.06641,-6.83987c10.60535,-1.4805 19.41785,-2.22266 26.4491,-2.22266c13.19153,0 21.01953,2.52737 23.4884,7.58597c2.58972,5.05463 2.58972,12.63672 0,22.746c-2.46887,0.49612 -4.25391,0.86334 -5.3634,1.10938c-0.98816,0.24619 -3.20703,0.61728 -6.66003,1.10941c-1.1095,-6.53122 -4.19141,-9.80078 -9.24622,-9.80078c-9.49597,0 -22.07019,1.66403 -37.73035,4.99222c-15.66016,3.20703 -32.36719,7.21481 -50.12122,12.02341c-17.63281,4.80865 -34.52332,9.86328 -50.67578,15.16406c-16.15222,5.30469 -29.2851,9.92578 -39.39441,13.87109c-3.57428,1.60547 -7.3985,3.14453 -11.46497,4.62506c-3.94916,1.48035 -8.19916,2.46484 -12.76166,2.96088l-24.23047,265.21484c6.04303,-0.49219 12.82422,-3.01953 20.34369,-7.58203c7.64465,-4.5625 14.24225,-7.82813 19.78906,-9.80072c20.7149,-9.125 42.29303,-16.83197 64.73438,-23.12109c22.44141,-6.28906 45.06641,-11.21881 67.875,-14.79694c4.5625,-0.98438 13.625,-2.40228 27.1875,-4.24994c13.6875,-1.72662 30.21106,-3.64063 49.56653,-5.73438c19.48047,-1.97272 40.07422,-3.57819 61.77344,-4.80859c21.6991,-1.23444 42.91016,-1.85162 63.62109,-1.85162c29.34753,0 54.5,1.97266 75.46094,5.91797c20.96082,4.07031 31.44128,11.71497 31.44128,22.93365c0,4.93353 -0.12488,8.01563 -0.37109,9.25006c-0.24597,1.35529 -1.04688,2.28119 -2.40234,2.77344c-1.23438,0.49207 -3.08191,2.52728 -5.55066,6.1015c-2.58594,-2.09381 -4.5,-4.25385 -5.73047,-6.47266c-1.23438,-2.21875 -3.76184,-4.5 -7.58606,-6.84369c-3.82031,-2.21881 -11.28125,-4.12903 -22.37878,-5.73053c-16.64465,-2.96094 -39.33203,-4.44141 -68.05872,-4.44141c-33.91003,0 -69.66406,1.48047 -107.26953,4.44141c-37.60925,3.08197 -74.47644,8.38269 -110.60156,15.90234c-36.125,7.64447 -69.8476,18.25 -101.16797,31.8125c-5.05469,2.09766 -9.24609,3.88269 -12.57416,5.36322c-3.20703,1.48047 -7.08997,3.51563 -11.6524,6.10541c-4.07025,1.97278 -8.13666,3.82043 -12.20697,5.547c-3.94531,1.8515 -7.2149,3.51556 -9.80469,4.99213c-3.94537,2.58984 -6.71875,7.64459 -8.32037,15.16797c-1.48047,7.64459 -2.34375,15.71881 -2.58984,24.22656c-0.24603,8.63281 -0.61719,16.46094 -1.10938,23.48834c-1.48041,17.14069 -4.37885,28.97662 -8.69141,35.51166c-4.31628,6.66022 -9.24994,9.98828 -14.79694,9.98828c-5.05457,0 -10.35938,-2.52728 -15.90607,-7.58197c-5.54688,-5.05859 -10.10956,-10.85156 -13.68756,-17.38672c-3.57428,-6.5351 -5.36322,-12.08203 -5.36322,-16.64447c0,-14.67194 1.664,-25.95709 4.99603,-33.84772c3.32806,-7.76563 7.08972,-13.68359 11.28131,-17.75397c4.31628,-4.07025 8.50769,-7.64447 12.57416,-10.72656c4.07031,-2.96094 6.84375,-6.71869 8.3241,-11.28119c0.49225,-1.97266 1.10944,-7.15234 1.85168,-15.53912c0.73822,-8.25781 1.47656,-17.56635 2.21863,-27.92572c0.86334,-10.35547 1.53918,-19.97266 2.03137,-28.85156c0.49603,-8.75397 0.74219,-14.67194 0.74219,-17.75391c0,-6.04297 0.24609,-9.86725 0.73828,-11.46881c0.49603,-1.48047 0.98828,-4.74603 1.48035,-9.80072c0,-4.07037 -0.12494,-8.01563 -0.37109,-11.83594c-0.24597,-3.69934 -0.12097,-7.58594 0.37109,-11.6524l9.98834,-134.82806l-63.80853,32.55072c-0.49225,0 -3.63678,1.91022 -9.43359,5.73444c-5.79297,3.82031 -11.21869,5.73041 -16.27344,5.73041c-5.05475,0 -7.58203,-3.26556 -7.58203,-9.80078c0,-4.07031 3.14453,-8.63281 9.42969,-13.68744c6.41406,-5.05475 13.25775,-9.73828 20.53131,-14.05475c7.27325,-4.31635 12.45306,-7.21484 15.5351,-8.69141l56.039,-26.44922c0,-13.19135 0.49225,-25.58591 1.48047,-37.17575c0.98444,-11.58987 2.28125,-23.73441 3.88287,-36.43356l21.08594,-212.13676c-5.05475,2.58981 -10.11328,5.17969 -15.16797,7.76564c-4.92969,2.46869 -10.17188,4.68747 -15.71881,6.6601l-90.25781,46.97656c-9.61713,5.54694 -19.23444,11.21875 -28.85156,17.01569c-9.49219,5.79688 -19.04694,12.02344 -28.66406,18.67966c-2.58972,1.48053 -5.05853,3.0195 -7.39844,4.62506c-2.21869,1.47656 -4.80859,3.20313 -7.76947,5.17575c-2.5899,1.97263 -4.5,3.51563 -5.73444,4.62503c-1.23053,0.98828 -3.39063,2.46484 -6.4726,4.43747c-1.97278,0.98828 -4.19141,2.03513 -6.65625,3.14453c-2.58984,0.98828 -5.11719,1.48041 -7.58594,1.48041c-7.14844,0 -10.72656,-3.82031 -10.72656,-11.46484c0,-4.56241 5.05469,-10.85147 15.16797,-18.8671c10.10938,-8.13675 22.87103,-16.95319 38.28516,-26.4454c15.41016,-9.61716 31.31635,-19.11328 47.71484,-28.48428c16.39844,-9.37119 30.88672,-17.57034 43.46478,-24.59772c12.69922,-7.1523 21.32813,-11.71483 25.89069,-13.68753l65.84369,-31.07024zm480.91406,422.79292c0,-25.27734 1.47668,-52.52338 4.43762,-81.74609c3.08191,-29.3476 7.15234,-58.38275 12.20703,-87.11328c5.05469,-28.85156 10.60156,-54.92969 16.64441,-78.23044c2.58984,-7.52341 5.11731,-15.96875 7.58215,-25.33984c2.58984,-9.37106 5.85925,-17.44531 9.80469,-24.22659c4.06628,-6.78122 9.42957,-10.17191 16.08972,-10.17191c6.04309,0 9.8009,2.28131 11.28125,6.8399c1.48059,4.44138 1.60156,9.86713 0.37109,16.27731c-1.23438,6.28906 -2.89832,12.082 -4.99597,17.38672c-1.97278,5.30081 -3.20325,8.93747 -3.69934,10.91019c-4.06628,15.164 -8.75391,35.75778 -14.05457,61.77347c-5.3009,26.01559 -10.35559,54.43747 -15.16406,85.26172c-4.80872,30.82416 -8.50781,61.40228 -11.09766,91.73438c-2.46484,30.20697 -2.96094,57.58197 -1.48047,82.11719c1.60156,24.53503 5.67175,43.33984 12.20703,56.41016c8.62878,-4.5625 15.71875,-11.40625 21.26953,-20.53131c5.54675,-8.99994 10.35547,-17.81628 14.42566,-26.44525c11.58997,-22.19531 22.93372,-45.68365 34.03137,-70.4649c11.09753,-24.7851 22.74597,-48.02734 34.953,-69.72656c3.94543,-8.01556 8.19922,-12.02344 12.76184,-12.02344c2.09766,0 3.7616,0.86334 4.99597,2.58984c1.23047,1.72662 1.84778,3.63672 1.84778,5.73438c0,1.48047 -2.03528,6.28906 -6.10156,14.42584c-4.07043,8.01563 -8.26184,16.33588 -12.57813,24.96869c-4.19141,8.50787 -7.02747,14.05475 -8.50781,16.64453c-5.05469,10.60156 -10.78906,22.99609 -17.19922,37.17584c-6.28906,14.05463 -12.45313,27.92578 -18.49609,41.61328c-6.04309,13.68359 -11.83594,25.27344 -17.38293,34.76947c-2.58984,4.07031 -6.04297,9.49225 -10.35925,16.2774c-4.19141,6.90234 -8.81653,12.88275 -13.87122,17.9375c-5.05469,5.05457 -10.85144,7.58203 -17.38672,7.58203c-10.10938,0 -18.125,-5.05469 -24.04297,-15.164c-5.79297,-10.10938 -9.98438,-22.75012 -12.57422,-37.91418c-2.46863,-15.16797 -4.07019,-30.82416 -4.80847,-46.9765c-0.74231,-16.15234 -1.1095,-30.26953 -1.1095,-42.35553zm-81.05066,-279.64066c0,-6.53513 6.10156,-13.44138 18.30859,-20.71478c12.08582,-7.39847 27.375,-14.61328 45.86707,-21.64066c18.37122,-7.15231 37.79309,-13.87109 58.26172,-20.16016c20.34375,-6.28513 39.14465,-11.71088 56.40625,-16.27338c17.14075,-4.56253 30.02344,-8.07819 38.65637,-10.54303c10.60547,-3.082 17.99988,-4.87109 22.19519,-5.36331c4.31262,-0.49213 7.08997,-2.0976 8.32031,-4.80856c1.35559,-2.83597 2.77356,-8.57028 4.25403,-17.19917c4.07031,-20.71489 8.75391,-34.95708 14.05847,-42.72272c5.3009,-7.89453 10.48047,-11.83987 15.53516,-11.83987c4.06653,0 7.45703,2.1602 10.172,6.47272c2.83594,4.31636 4.25391,9.49603 4.25391,15.53905c0,4.55858 -0.30872,6.47261 -0.92578,5.7305c-0.49219,-0.73828 -0.49219,0.92575 0,4.99605c0,0.98444 0.125,2.21877 0.37109,3.69928c0.36719,1.47656 0.55469,3.5117 0.55469,6.1015c0,6.53514 -1.29688,9.80078 -3.88281,9.80078c-2.46875,0 -4.99622,0.37111 -7.58606,1.11333c-2.46484,0.73828 -3.6991,5.17575 -3.6991,13.31635c6.04297,0 12.70313,-0.86324 19.97656,-2.58981c7.39844,-1.85159 13.87097,-3.02342 19.41785,-3.51564c22.19543,-4.07028 44.39075,-7.70705 66.58203,-10.91017c22.19543,-3.33202 44.94543,-4.99605 68.24622,-4.99605c12.08582,0 20.89844,2.52737 26.44922,7.582c5.54688,5.05858 7.58203,10.11331 6.10156,15.16795c-1.47656,5.05472 -7.02747,7.58209 -16.64453,7.58209c-0.9845,-4.06644 -1.66406,-5.98047 -2.03528,-5.73441c-0.24597,0.24997 -2.58972,-0.12115 -7.02722,-1.10941c-2.09766,-0.49213 -6.16406,-0.73828 -12.20703,-0.73828c-10.60168,0 -24.66016,1.17191 -42.16797,3.51566c-17.38684,2.21875 -35.44922,4.86716 -54.19153,7.94925c-18.61719,2.96091 -35.2616,5.85941 -49.93347,8.69534c-14.55078,2.71091 -24.10559,4.56241 -28.66797,5.54688l-15.16797,155.35928c-0.49231,3.57428 -0.6134,7.39453 -0.36719,11.46494c0.24597,3.94525 0.36719,7.95309 0.36719,12.02341c0,5.05466 -0.36719,8.32031 -1.10938,9.80078c-0.7384,1.48041 -1.1095,5.05466 -1.1095,10.72656c0,11.09766 0.24622,23.85931 0.74231,38.28513c0.49207,14.30475 0.24609,25.5235 -0.74231,33.66016c-0.49219,4.5625 -0.92175,13.5625 -1.29285,27.00397c-0.24622,13.31635 -0.49219,28.789 -0.73828,46.42181c-0.25012,17.63287 -0.37122,35.44922 -0.37122,53.44922c0,17.87897 0,34.15631 0,48.82813c0,14.672 0.24622,25.27734 0.7384,31.80859c0,5.55078 0.61707,13.99609 1.85144,25.33984c1.35559,11.34375 1.66418,21.57819 0.922,30.70319c-0.7384,9.12103 -4.43762,13.68359 -11.09375,13.68359c-9.49622,0 -15.28918,-5.30078 -17.38684,-15.90637c-1.97253,-10.6015 -2.96094,-20.46478 -2.96094,-29.58966c-1.47644,-18.125 -2.40234,-39.33215 -2.77344,-63.62122c-0.24597,-24.29297 -0.24597,-48.51947 0,-72.6875c0.37109,-24.289 0.55481,-45.49603 0.55481,-63.62103l2.21863,-35.69543c0,-7.02722 0,-17.87885 0,-32.55066c0,-14.67194 0.25012,-30.21097 0.74219,-46.60941c0.49219,-16.39844 0.98438,-31.37891 1.48059,-44.94141c0.49219,-13.68756 1.23047,-23.30469 2.21875,-28.85156c1.10938,-5.05472 1.78516,-11.09766 2.03503,-18.125c0.24622,-7.1524 0.6134,-13.25391 1.1095,-18.30865l6.83984,-70.46872c-2.09375,0.49609 -6.53137,1.54294 -13.31641,3.14456c-6.78125,1.4805 -12.20313,2.71481 -16.27356,3.69916c-24.78503,6.04303 -48.39453,12.51566 -70.83582,19.42191c-22.44141,6.78128 -45.55872,14.73438 -69.35547,23.8555c-4.5625,1.9726 -8.69141,4.13281 -12.39063,6.47653c-3.82422,2.21878 -8.01563,4.31253 -12.57825,6.28513c-6.04285,2.5899 -9.92578,4.379 -11.65222,5.36334c-1.84766,0.98828 -2.77344,2.28119 -2.77344,3.88675c0,1.47647 -1.23438,4.74606 -3.69934,9.80069c-2.09375,0.49222 -4.12878,0.86331 -6.10156,1.10938c-1.97253,0.24619 -4.25378,0.37112 -6.84375,0.37112c-4.07019,0 -7.70691,-0.86325 -10.91406,-2.58981c-3.32813,-1.84766 -4.99207,-5.30078 -4.99207,-10.35553zm335.50781,200.85165c9.61707,-5.05475 20.22266,-12.01959 31.8125,-20.89844c11.71094,-8.87506 18.06238,-19.35553 19.04688,-31.44144c-6.53528,0.98828 -13.50012,4.49997 -20.89844,10.543c-7.27356,6.04291 -13.5625,12.88281 -18.86328,20.52734c-5.3009,7.52338 -9,14.61328 -11.09766,21.26953zm-34.03125,18.12494c0,-12.57416 4.13269,-26.19916 12.39063,-40.87103c8.38672,-14.67188 18.74207,-27.18753 31.07422,-37.54688c12.45313,-10.35553 24.71875,-15.53522 36.80457,-15.53522c16.64465,0 25.33606,6.35159 26.07825,19.05084c0.86328,12.57422 -4.5,26.19916 -16.09375,40.87494c-6.16418,6.53125 -15.28906,14.11719 -27.37109,22.74609c-12.08215,8.50787 -23.91809,13.25391 -35.50781,14.24225c0,8.13666 0.24597,15.35156 0.73828,21.64063c0.49219,6.28516 4.00781,12.69916 10.54297,19.23431c6.53516,6.65625 14.85547,9.98444 24.96875,9.98444c13.19141,0 26.81641,-4.12891 40.87097,-12.39069c14.17981,-8.38275 25.03137,-15.3515 32.55078,-20.89844c3.08215,-2.58978 5.4884,-4.62494 7.21497,-6.10547c1.84753,-1.6015 4.00781,-3.39056 6.47266,-5.36328c10.60547,-8.01172 17.26172,-13.92969 19.97253,-17.75385c2.83606,-3.82037 5.24219,-6.34766 7.21497,-7.58209c2.09766,-1.23431 6.90613,-1.8515 14.42578,-1.8515c1.10938,5.55078 1.54285,9.3125 1.29297,11.2851c-0.24609,1.97266 -2.15625,4.99225 -5.73047,9.0625c-9.125,9.12115 -20.65234,19.48047 -34.58594,31.07037c-13.80872,11.58978 -28.66797,21.69922 -44.57422,30.33203c-15.90625,8.62891 -31.6875,12.94531 -47.34766,12.94531c-8.13684,0 -15.84387,-1.35553 -23.11731,-4.07037c-7.27332,-2.83594 -14.24207,-7.58203 -20.89844,-14.23828c-8.99988,-9.00391 -14.17957,-18.31244 -15.53516,-27.92969c-1.23438,-9.61713 -1.85144,-19.7265 -1.85144,-30.33203zm174.16406,115.96484c-5.05469,0 -8.07813,-3.14447 -9.0625,-9.43353c-0.9884,-6.41016 -1.23438,-13.12897 -0.73828,-20.16016c0.49219,-7.02734 0.73828,-11.34381 0.73828,-12.94531c-0.49231,-9 -0.61719,-18.1875 -0.37109,-27.55859c0.24597,-9.36719 0.125,-18.86328 -0.36719,-28.48053c0,-3.57416 0.12109,-10.23438 0.36719,-19.9726c0.24597,-9.86725 0.98828,-20.34766 2.21875,-31.44147c1.35938,-11.2226 3.26941,-20.83984 5.73438,-28.85547c2.58984,-8.13675 5.85535,-12.20309 9.80469,-12.20309c10.10938,0 15.28906,3.32806 15.53516,9.98428c0.24597,6.53528 -0.12512,15.10553 -1.10938,25.70715c-0.49609,3.57806 -0.74231,7.52338 -0.74231,11.83984c0,4.19128 0,8.32031 0,12.39056c0,5.05469 -0.24597,8.38287 -0.73828,9.98828c-0.49219,1.47656 -0.74207,4.74615 -0.74207,9.80078c5.55078,-4.07025 10.60547,-8.75391 15.16797,-14.05463c4.5625,-5.30469 12.63672,-7.95319 24.22656,-7.95319c3.57813,0 8.2616,-0.12494 14.05859,-0.37103c5.79297,-0.24615 11.95691,-0.37109 18.49219,-0.37109c11.09766,0 21.45703,0.61719 31.07422,1.8515c9.61707,1.23444 14.42578,4.37506 14.42578,9.43359c0,5.05469 -2.65234,8.38281 -7.95325,9.98438c-5.30066,1.48047 -11.77722,2.21875 -19.42175,2.21875c-5.05469,0 -10.23047,-0.12109 -15.53516,-0.36713c-5.3009,-0.24609 -9.92578,-0.37115 -13.87109,-0.37115c-14.17969,0 -23.672,0.73828 -28.48047,2.21881c-4.80859,1.48041 -10.23438,7.27734 -16.27747,17.38672c-3.5741,6.5351 -7.02722,13.62494 -10.35535,21.26953c-3.20715,7.51947 -5.55078,15.84369 -7.02747,24.96875c-1.60547,6.53516 -2.28125,13.375 -2.03503,20.52728c0.37109,7.02734 -0.37109,12.94531 -2.21875,17.75397c-1.72656,4.80859 -6.66016,7.21478 -14.79688,7.21478zm134.1875,-36.43353c-9.61731,0 -15.84375,-5.79688 -18.67981,-17.38672c-2.71472,-11.5899 -3.08191,-26.07813 -1.10925,-43.46484c2.09375,-17.50787 5.79285,-34.95319 11.09375,-52.3399c5.30469,-17.50775 11.22266,-32.05859 17.75781,-43.64838c6.53516,-11.58987 12.57422,-17.38287 18.125,-17.38287c8.62891,0 12.6991,3.94531 12.20703,11.83591c-0.49609,7.76959 -3.02356,18.12503 -7.58594,31.07034c-4.55859,12.82422 -9.12109,26.94147 -13.68359,42.35553c-4.56262,15.4101 -6.84387,30.39056 -6.84387,44.94135l36.43359,-55.30072c1.48059,-2.95703 4.74622,-8.19922 9.80481,-15.71881c5.05469,-7.64453 10.72656,-14.73431 17.0155,-21.26947c6.28516,-6.66016 12.45313,-9.98834 18.49219,-9.98834c6.16797,0 10.97656,4.07031 14.42578,12.20703l4.625,42.35553c0,4.55859 0.24634,11.64838 0.73853,21.26556c0.49585,9.61725 1.60547,19.35944 3.33203,29.22266c1.84741,9.86328 4.74585,18.31256 8.69141,25.3399c4.07007,7.02734 9.67944,10.54291 16.83179,10.54291c7.51953,0 15.4104,-4.50391 23.67188,-13.50391c8.38281,-9.125 16.46094,-19.60541 24.22656,-31.44135c7.89453,-11.961 14.98047,-22.44147 21.26953,-31.44147c6.41431,-9.125 11.34375,-13.68359 14.79688,-13.68359c7.64453,0 11.21875,2.89459 10.72681,8.69141c-0.49219,5.79303 -3.01978,12.51563 -7.58228,20.16016c-4.56226,7.51959 -9.24609,14.54694 -14.05469,21.08209c-4.80835,6.5351 -7.70703,10.60541 -8.69507,12.20703c-3.57446,4.56244 -8.38306,10.35938 -14.42578,17.38672c-6.03931,7.02734 -12.39063,13.62494 -19.05103,19.78906c-6.53125,6.04291 -12.82007,9.80078 -18.86328,11.28125c-5.05469,1.48041 -9.86304,2.21869 -14.42578,2.21869c-11.5896,0 -20.77734,-4.25391 -27.55859,-12.76166c-6.78125,-8.62891 -11.95679,-18.00006 -15.53516,-28.10944c-5.05469,-15.16797 -7.82813,-28.66791 -8.32031,-40.50385c-0.49585,-11.83984 -0.49585,-21.94922 0,-30.33209c0.49219,-8.38672 -0.55859,-14.79694 -3.14441,-19.23438c-6.04297,3.94531 -12.45313,12.01959 -19.2345,24.22662c-6.78516,12.08203 -13.87097,25.08984 -21.26941,39.02344c-7.27734,13.80859 -14.6134,25.64844 -22.01172,35.51172c-7.27344,9.86322 -14.67188,14.79688 -22.19141,14.79688zm229.44519,157.57416c0,5.55078 0.37109,14.11725 1.10938,25.70703c0.73853,11.59375 2.21875,23.79688 4.4375,36.62109c2.34375,12.94531 5.67212,24.23059 9.98828,33.84772c4.31641,9.61713 9.74219,15.16406 16.27759,16.64459c5.54688,-3.45325 10.97266,-10.66412 16.27319,-21.64063c5.30103,-10.84772 9.86353,-22.56256 13.68774,-35.14075c3.82031,-12.57416 5.73438,-23.42566 5.73438,-32.55072l0,-28.85156c0,-11.58984 -3.57837,-23.05469 -10.73071,-34.39838c-7.0271,-11.34381 -15.71851,-21.086 -26.07422,-29.22278c-10.35913,-8.01569 -20.59375,-12.02344 -30.70313,-12.02344l0,81.00781zm-121.14063,-78.04688c0,-6.53516 4.4375,-11.96088 13.31641,-16.2774c8.75415,-4.31641 18.67993,-7.76563 29.77734,-10.35535c11.09375,-2.4649 19.41821,-3.94537 24.96509,-4.4375c8.14038,-0.98828 13.07031,-1.60553 14.79663,-1.85156c1.72656,-0.24609 2.89844,-4.68359 3.51587,-13.31641c0.49194,-12.08209 2.4021,-27.3125 5.73047,-45.68359c3.20703,-18.49219 7.33984,-38.22266 12.39453,-59.18359c5.05469,-20.96094 10.48047,-41.67584 16.27319,-62.14069c5.79688,-20.46872 11.83594,-38.90231 18.125,-55.30075c6.28906,-16.39844 12.51587,-28.66803 18.67969,-36.80466c6.5354,-8.01563 13.31665,-12.02353 20.34375,-12.02353c3.57813,0 6.5979,1.418 9.0625,4.25394c2.59009,2.71484 3.88672,7.33597 3.88672,13.87106c0,9.12506 -0.55469,14.61331 -1.66382,16.46097c-0.98853,1.72659 -2.46875,2.836 -4.44165,3.33206c-1.97266,0.49219 -4.5,2.8945 -7.58179,7.21088c-2.95703,4.1915 -6.47266,13.625 -10.54321,28.29691c-5.05469,17.75388 -9.12085,32.05859 -12.20703,42.91016c-2.95703,10.84772 -5.85522,21.82422 -8.69141,32.91803c-2.71069,11.09766 -6.10156,26.51166 -10.17188,46.23828c-1.48047,8.01563 -3.14429,18.61713 -4.99219,31.81244c-1.72656,13.07037 -3.08179,24.16406 -4.07007,33.28912c2.96094,-0.98444 8.19897,-4.00787 15.71851,-9.0625c7.64844,-5.05475 15.84766,-10.97272 24.60156,-17.75391c8.875,-6.90625 17.38281,-13.50006 25.52368,-19.78906c8.13647,-6.28906 14.17554,-11.22266 18.125,-14.79694l55.29663,-52.33984c3.57837,-2.46484 7.15234,-3.69922 10.72681,-3.69922c5.55054,0 8.32397,3.01953 8.32397,9.0625c0,5.05469 -3.69922,11.5274 -11.09741,19.41797c-7.27368,7.76959 -15.22681,15.47662 -23.85938,23.12115c-8.50806,7.51947 -14.79297,13.07025 -18.86328,16.64453l-102.27734,79.52734c29.34741,6.53516 50.67554,20.28516 63.99219,41.24609c13.44116,20.96094 20.16016,45.18744 20.16016,72.68353c0,27.49622 -5.30103,55.17584 -15.90649,83.04309c-3.57397,10.60144 -9.30835,21.57806 -17.19897,32.91785c-7.76978,11.34387 -18.49634,17.01569 -32.17969,17.01569c-11.59009,0 -21.21118,-5.54694 -28.85571,-16.64453c-7.51953,-11.09772 -13.68335,-25.15228 -18.49219,-42.16797c-4.80835,-16.89063 -8.44507,-34.27747 -10.91382,-52.15631c-2.58984,-17.87885 -4.5,-34.27722 -5.73047,-49.19531c-1.23438,-14.91797 -2.09766,-25.39844 -2.58984,-31.44128c-0.49634,-4.56268 -0.24634,-9.37115 0.73804,-14.42584c0.98853,-5.05469 1.48071,-10.85162 1.48071,-17.38678c-8.50781,1.97272 -18.18774,5.98053 -29.03931,12.02344c-10.97266,6.03906 -23.73413,9.0625 -38.28125,9.0625c-9.12476,0 -14.05835,-1.789 -14.79688,-5.36322c-0.74219,-3.45313 -1.10938,-7.70709 -1.10938,-12.76178zm285.5354,-57.51947c7.52319,-2.09766 14.30444,-8.81647 20.34375,-20.16016c6.16772,-11.34381 10.48047,-24.28912 12.94922,-38.8399c2.58984,-14.67181 3.20288,-28.17188 1.84766,-40.50385c-1.23071,-12.45319 -5.11743,-20.96094 -11.65234,-25.5235c-1.60156,5.55078 -4.43774,13.50391 -8.50781,23.85944c-3.94556,10.35931 -7.82813,21.76166 -11.65259,34.21478c-3.69507,12.33203 -6.22656,24.41406 -7.58179,36.25c-1.23071,11.83594 0.1875,22.07037 4.25391,30.70319zm-37.91431,-25.70703c0,-6.66016 1.35547,-16.39844 4.07056,-29.22272c2.83569,-12.94525 6.78125,-26.81641 11.83594,-41.61322c5.05469,-14.92194 10.72632,-29.03906 17.01538,-42.35547c6.28906,-13.43756 13.07031,-24.47266 20.34375,-33.1055c7.39844,-8.62888 14.91821,-12.94531 22.56274,-12.94531c5.05835,0 8.57031,2.28119 10.54272,6.84372c1.97266,4.56253 2.46484,8.38278 1.48047,11.46478c-0.98804,2.46881 -2.89819,4.99615 -5.73413,7.58215c-2.71118,2.46875 -5.05469,5.24219 -7.02759,8.32422c0.98462,3.45313 3.45313,7.33594 7.39868,11.65228c4.06616,4.31641 8.13647,10.04688 12.20703,17.19922c4.06616,7.0274 6.71851,16.58594 7.95288,28.66797c1.23047,12.08209 -0.1875,27.98828 -4.25366,47.71875c-5.55103,26.26172 -14.36719,45.98828 -26.44946,59.18359c-12.08179,13.06641 -23.91772,19.60156 -35.51172,19.60156c-9.61719,0 -18.125,-4.92963 -25.51953,-14.79297c-7.27734,-9.86719 -10.91406,-24.6015 -10.91406,-44.20306zm143.8479,40.13275c-5.05469,0 -8.07446,-3.14447 -9.0625,-9.43353c-0.98438,-6.41016 -1.23071,-13.12897 -0.73853,-20.16016c0.49219,-7.02734 0.73853,-11.34381 0.73853,-12.94531c-0.49219,-9 -0.61328,-18.1875 -0.36743,-27.55859c0.24634,-9.36719 0.12109,-18.86328 -0.37109,-28.48053c0,-3.57416 0.12524,-10.23438 0.37109,-19.9726c0.24634,-9.86725 0.98438,-20.34766 2.21875,-31.44147c1.35571,-11.2226 3.26587,-20.83984 5.73462,-28.85547c2.58594,-8.13675 5.85547,-12.20309 9.80054,-12.20309c10.10938,0 15.28906,3.32806 15.53516,9.98428c0.24634,6.53528 -0.12085,15.10553 -1.10938,25.70715c-0.49219,3.57806 -0.73804,7.52338 -0.73804,11.83984c0,4.19128 0,8.32031 0,12.39056c0,5.05469 -0.24634,8.38287 -0.74219,9.98828c-0.49219,1.47656 -0.73853,4.74615 -0.73853,9.80078c5.54688,-4.07025 10.60156,-8.75391 15.16406,-14.05463c4.56274,-5.30469 12.64087,-7.95319 24.23047,-7.95319c3.57446,0 8.26172,-0.12494 14.05493,-0.37103c5.79663,-0.24615 11.96069,-0.37109 18.49609,-0.37109c11.09766,0 21.45288,0.61719 31.07031,1.8515c9.61719,1.23444 14.42554,4.37506 14.42554,9.43359c0,5.05469 -2.64844,8.38281 -7.95313,9.98438c-5.30054,1.48047 -11.77319,2.21875 -19.41772,2.21875c-5.05493,0 -10.23462,-0.12109 -15.5354,-0.36713c-5.30469,-0.24609 -9.92578,-0.37115 -13.87085,-0.37115c-14.17993,0 -23.67603,0.73828 -28.48438,2.21881c-4.80884,1.48041 -10.23462,7.27734 -16.27344,17.38672c-3.57837,6.5351 -7.02759,13.62494 -10.35962,21.26953c-3.20288,7.51947 -5.54688,15.84369 -7.0271,24.96875c-1.60156,6.53516 -2.28125,13.375 -2.0354,20.52728c0.37109,7.02734 -0.36719,12.94531 -2.21875,17.75397c-1.72632,4.80859 -6.65625,7.21478 -14.79663,7.21478zm113.66016,-89.51563c0,-11.09766 1.60132,-23.42572 4.80859,-36.98822c3.32788,-13.68756 7.64453,-26.94141 12.94531,-39.76569c5.30078,-12.94531 11.03516,-23.42578 17.19922,-31.44141c5.55078,-6.16406 11.09741,-9.24603 16.64429,-9.24603c4.44141,0 8.94165,1.29294 13.50415,3.88281c0.49194,2.46484 1.10938,4.25381 1.84766,5.36322c0.86304,0.98825 1.29663,3.20706 1.29663,6.66019c0,0.61331 -2.28125,5.48434 -6.84351,14.60934c-4.5625,9 -9.49609,20.34381 -14.79688,34.03125c-5.30103,13.5625 -9.61719,27.92578 -12.94556,43.09375c-3.20703,15.16406 -3.32788,29.03516 -0.37109,41.61328c6.04321,-1.9726 11.34399,-5.85938 15.90649,-11.65234c4.56226,-5.79688 8.62891,-11.22266 12.20703,-16.27734l45.49609,-66.76563c5.05444,-7.02734 9.30859,-13.19135 12.76172,-18.49609c3.57422,-5.30072 8.87866,-7.95313 15.90601,-7.95313c7.15259,0 11.34399,4.44141 12.57813,13.31641c1.23071,8.75787 1.47681,18.74225 0.73853,29.9649c-0.73853,11.09369 -0.86328,19.91016 -0.37134,26.44531c2.46899,18.125 6.35156,30.88666 11.65234,38.28516c5.30103,7.27338 11.52759,10.914 18.67969,10.914c8.50806,0 17.57031,-3.51569 27.18774,-10.54291c9.61719,-7.1524 19.23413,-15.35156 28.85156,-24.59772c9.61694,-9.37109 18.06616,-17.57031 25.33984,-24.60156c7.27344,-7.14844 12.69897,-10.72656 16.27344,-10.72656c3.08594,0 5.85938,0.67975 8.32397,2.03516c2.59009,1.23438 3.88306,3.82422 3.88306,7.76953c0,4.06641 -3.08203,9.55469 -9.24634,16.46094c-6.04272,6.78125 -12.57813,13.31641 -19.60522,19.60156c-7.02734,6.28906 -12.08228,10.97662 -15.16431,14.05865c-10.11328,9.61713 -21.08569,17.81641 -32.92163,24.5976c-11.83594,6.78131 -23.61328,10.17194 -35.32446,10.17194c-12.57788,0 -22.44116,-3.39063 -29.59375,-10.17194c-7.0271,-6.78119 -12.20703,-15.35156 -15.53491,-25.70697c-3.20728,-10.35938 -5.30103,-21.20703 -6.28906,-32.55084c-0.98438,-11.46869 -1.48071,-21.70306 -1.48071,-30.70306c-3.08203,1.9726 -6.78101,6.4101 -11.09375,13.31641c-4.19531,6.78119 -7.58594,12.14453 -10.17554,16.08978c-3.08203,5.05475 -7.39453,12.02344 -12.94531,20.89844c-5.54688,8.87897 -11.71094,17.75781 -18.49219,26.63287c-6.7854,8.75391 -13.625,16.15228 -20.53149,22.19531c-6.78101,6.04291 -13.19141,9.0625 -19.23413,9.0625c-11.58984,0 -19.54321,-3.39063 -23.85962,-10.17194c-4.31616,-6.78119 -6.59741,-15.10541 -6.84351,-24.96869c-0.24634,-9.86328 -0.36719,-19.10938 -0.36719,-27.74225zm295.40234,31.07031c-10.60571,0 -18.06274,-5.30072 -22.37891,-15.90625c-4.31641,-10.60156 -6.22656,-23.73438 -5.73438,-39.39063c0.61719,-15.6601 2.6521,-31.32031 6.10547,-46.98047c3.57397,-15.65625 8.01172,-28.78903 13.31616,-39.39059c5.30078,-10.60544 10.72681,-15.90622 16.27368,-15.90622c9.61694,0 15.28906,2.15622 17.01563,6.4726c1.84766,4.31647 1.48047,11.03522 -1.10938,20.16016c-2.46509,9 -5.36328,20.4649 -8.69165,34.3985c-3.33179,13.93353 -4.99609,30.45697 -4.99609,49.56635c1.10938,-0.98438 1.91406,-1.72656 2.40649,-2.21875c0.49219,-0.49213 0.98413,-0.98822 1.48047,-1.48041l35.50781,-59.92188c3.08203,-5.05475 7.27344,-11.71497 12.57813,-19.97665c5.30078,-8.38272 11.09766,-15.96481 17.38281,-22.74609c6.28906,-6.90616 12.45288,-10.35934 18.49609,-10.35934c11.7146,0 19.29688,5.98047 22.75,17.94147c3.57422,11.83591 5.36304,23.79681 5.36304,35.87891c5.54688,-0.98444 12.32837,-5.60938 20.34399,-13.87109c8.13647,-8.38284 15.47266,-15.59766 22.00781,-21.63672c3.57813,-4.0704 6.72241,-7.58594 9.43359,-10.543c2.83569,-3.08203 6.28882,-5.67191 10.35547,-7.76956c5.05835,-2.46478 9.61694,-3.69919 13.6875,-3.69919c5.05469,0 9.30835,2.03513 12.76147,6.10544c3.57422,4.06644 5.60962,11.52731 6.10156,22.37891c0.49634,10.84769 0.25024,23.36328 -0.73804,37.54297c-0.98462,14.05865 -2.15649,28.17578 -3.51587,42.35547c-1.23022,14.05469 -1.84766,26.38281 -1.84766,36.98828c0,23.30469 1.91016,39.64063 5.73438,49.01178c3.82031,9.24603 9.00024,13.87109 15.5354,13.87109c7.51929,0 15.96484,-4.99225 25.33594,-14.98047c9.37109,-10.10938 18.67969,-22.00781 27.92969,-35.69537c9.37085,-13.68744 17.38257,-26.07813 24.04297,-37.17578c3.45288,-5.54681 6.84375,-11.09766 10.17163,-16.64453c3.32837,-5.54681 9.00024,-8.32422 17.01587,-8.32422c1.48022,0 3.08203,1.05084 4.80859,3.14453c1.84741,1.97266 2.77319,4.19141 2.77319,6.66016c0,3.08209 -1.53906,7.3985 -4.62476,12.94531c-2.95703,5.54694 -6.10156,10.97266 -9.42969,16.2774c-3.20703,5.30078 -5.85938,9.49219 -7.95313,12.57422c-1.97266,3.45313 -3.76196,6.4726 -5.36328,9.0625c-1.48047,2.46484 -3.45313,5.73431 -5.91797,9.80463c-1.97266,3.08203 -4.00781,5.73047 -6.10547,7.94928c-1.97266,2.2226 -4.25391,5.36713 -6.84375,9.43359c-9.61719,14.17969 -21.14478,26.57025 -34.58203,37.17578c-13.31641,10.6015 -26.26563,15.90625 -38.84009,15.90625c-7.02734,0 -13.87109,-2.28125 -20.53101,-6.84375c-6.5354,-4.5625 -11.83594,-12.39069 -15.90649,-23.48834c-7.02734,-18.61719 -10.41772,-38.28516 -10.17163,-58.99994c0.24585,-20.7149 1.85156,-40.93365 4.80859,-60.66412c3.08179,-19.7265 4.62476,-36.92578 4.62476,-51.59763c-5.05444,3.57422 -11.21851,9.42966 -18.49609,17.56644c-7.27344,8.01563 -14.73438,15.4765 -22.37866,22.37891c-7.51953,6.78516 -14.85571,10.17572 -22.00781,10.17572c-11.58984,0 -19.54321,-5.55078 -23.85938,-16.64844c-4.31641,-11.09369 -6.47266,-22.25385 -6.47266,-33.47263c-8.50806,5.54684 -16.70728,15.41013 -24.59766,29.58981c-7.76978,14.17969 -15.5979,29.09772 -23.48828,44.75781c-7.76953,15.66022 -15.59766,29.16022 -23.48828,40.50391c-7.76953,11.34381 -15.96875,17.26178 -24.59766,17.75391l-1.48047,0zm0,0" fill="none"/>
  <g id="svg_5" fill="#292a61">
   <g id="svg_6">
    <g id="svg_7">
     <path id="svg_8" d="m432.43066,914.93164c0,-3.03125 0.125,-7.82813 0.375,-14.39063c0.25,-6.5625 0.75391,-13.13281 1.51563,-19.70313c0.75781,-6.5625 1.39063,-10.60156 1.89063,-12.10938c-3.53125,0.5 -5.55469,1.37891 -6.0625,2.64063c-0.5,1.25781 -1.76172,3.66016 -3.78125,7.20313c-3.03125,6.5625 -4.17188,13.25 -3.42188,20.0625c0.75781,6.82031 3.92188,12.25391 9.48438,16.29688zm60.59375,-703.76563c0,-14.64453 1.13281,-28.65625 3.40625,-42.03125c2.28125,-13.375 3.42188,-27.13281 3.42188,-41.28125c0,-5.55078 0.50391,-12.36719 1.51563,-20.45313c1.00781,-8.08203 1.76563,-15.40625 2.26563,-21.96875c1.00781,-7.07031 1.39063,-12.25 1.14063,-15.53125c-0.25,-3.28125 0.37891,-5.80078 1.89063,-7.5625c1.51953,-1.76953 4.80078,-4.17188 9.84375,-7.20313c4.03906,2.02344 7.45313,4.29688 10.23438,6.82813c2.78125,2.52344 4.17188,7.0625 4.17188,13.625c0,24.24219 -0.63672,44.94922 -1.90625,62.125c-1.26172,17.16797 -2.90234,36.85547 -4.92188,59.0625c4.03906,-1.00781 9.21875,-2.89844 15.53125,-5.67188c6.3125,-2.78125 11.73828,-4.92969 16.28125,-6.45313c33.84375,-13.625 70.33203,-27 109.46875,-40.125c39.14453,-13.13281 76.89453,-22.98438 113.25,-29.54688c8.08203,-2.01953 22.59766,-4.79688 43.54688,-8.32813c20.95703,-3.53906 44.44141,-6.69531 70.45313,-9.46875c26.00781,-2.78125 50.88281,-4.17188 74.625,-4.17188c25.25,0 46.58203,2.27734 64,6.82813c17.42578,4.54297 26.14063,13.125 26.14063,25.75c0,14.13672 -5.17969,24.86719 -15.53125,32.1875c-10.35547,7.32422 -20.57813,11.49219 -30.67188,12.5c2.51953,-7.07031 6.55469,-14.26953 12.10938,-21.59375c5.5625,-7.32031 8.84766,-14.26563 9.85938,-20.82813c-6.57422,-1.00781 -12.51172,-2.26953 -17.8125,-3.78125c-5.30469,-1.51953 -12.24609,-2.28125 -20.82813,-2.28125c-25.76172,0 -48.10938,0.25781 -67.04688,0.76563c-18.9375,0.5 -36.86719,1.76172 -53.78125,3.78125c-16.91797,2.02344 -34.71875,4.80469 -53.40625,8.34375c-18.67969,3.53125 -40.64063,8.32813 -65.89063,14.39063c-3.53125,1.01172 -11.35938,3.41406 -23.48438,7.20313c-12.125,3.78125 -26.77344,8.32422 -43.9375,13.625c-17.16797,5.30469 -34.96875,11.10938 -53.40625,17.42188c-18.4375,6.30469 -35.86719,12.48438 -52.28125,18.54688c-16.40625,6.0625 -30.04297,11.49609 -40.90625,16.29688c-10.85547,4.79297 -17.03906,8.70313 -18.54688,11.73438l-24.25,237.85938c-0.5,6.57422 -1.38672,14.15234 -2.65625,22.73438c-1.26172,8.58594 -1.89063,16.66406 -1.89063,24.23438c5.5625,-1.00781 14.27344,-3.91016 26.14063,-8.70313c11.86328,-4.80078 21.58594,-8.21094 29.17188,-10.23438c9.08203,-3.03125 20.94531,-6.5625 35.59375,-10.59375c14.64453,-4.03906 29.41406,-7.82813 44.3125,-11.35938c14.90625,-3.53906 26.90625,-5.81641 36,-6.82813c10.60156,-1.50781 19.4375,-2.26563 26.5,-2.26563c13.13281,0 20.96094,2.52734 23.48438,7.57813c2.53125,5.04297 2.53125,12.61719 0,22.71875c-2.52344,0.5 -4.28906,0.88281 -5.29688,1.14063c-1.01172,0.25 -3.28125,0.625 -6.8125,1.125c-1.01172,-6.5625 -4.04297,-9.84375 -9.09375,-9.84375c-9.59375,0 -22.21875,1.64063 -37.875,4.92188c-15.65625,3.28125 -32.32422,7.32422 -50,12.125c-17.67969,4.79297 -34.60156,9.84375 -50.76563,15.15625c-16.15625,5.30469 -29.28906,9.96875 -39.39063,14c-3.53125,1.52344 -7.32031,3.04297 -11.35938,4.5625c-4.04297,1.51172 -8.33594,2.51563 -12.875,3.01563l-24.25,265.14063c6.0625,-0.5 12.87891,-3.02734 20.45313,-7.57813c7.58203,-4.54297 14.14844,-7.82422 19.70313,-9.84375c20.70703,-9.08594 42.29688,-16.78906 64.76563,-23.10938c22.47656,-6.3125 45.08203,-11.23438 67.8125,-14.76563c4.53906,-1.01172 13.62891,-2.40234 27.26563,-4.17188c13.63281,-1.76172 30.17188,-3.65234 49.60938,-5.67188c19.44531,-2.02344 40.02344,-3.66797 61.73438,-4.9375c21.71875,-1.26172 42.92969,-1.89063 63.64063,-1.89063c29.28906,0 54.41406,2.01953 75.375,6.0625c20.95703,4.03906 31.4375,11.61719 31.4375,22.73438c0,5.05078 -0.13281,8.20703 -0.39063,9.46875c-0.25,1.25781 -1.00781,2.14063 -2.26563,2.64063c-1.26172,0.50781 -3.15625,2.53125 -5.6875,6.0625c-2.52344,-2.02344 -4.41406,-4.16797 -5.67188,-6.4375c-1.26172,-2.27344 -3.78906,-4.54297 -7.57813,-6.8125c-3.79297,-2.27344 -11.24219,-4.16797 -22.34375,-5.6875c-16.66797,-3.03125 -39.39844,-4.54688 -68.1875,-4.54688c-33.82422,0 -69.54688,1.51563 -107.17188,4.54688c-37.625,3.03125 -74.49609,8.33203 -110.60938,15.90625c-36.10547,7.58203 -69.8125,18.19141 -101.125,31.82813c-5.05469,2.01953 -9.21875,3.78516 -12.5,5.29688c-3.28125,1.51953 -7.19922,3.53906 -11.75,6.0625c-4.03125,2.01953 -8.07031,3.91016 -12.10938,5.67188c-4.04297,1.76953 -7.32813,3.41406 -9.85938,4.9375c-4.03125,2.51953 -6.80859,7.56641 -8.32813,15.14063c-1.51172,7.58203 -2.39844,15.66406 -2.65625,24.25c-0.25,8.58203 -0.625,16.41016 -1.125,23.48438c-1.52344,17.16406 -4.42969,29.03125 -8.71875,35.59375c-4.29297,6.57031 -9.21484,9.85938 -14.76563,9.85938c-5.05469,0 -10.35938,-2.52734 -15.92188,-7.57813c-5.55469,-5.05469 -10.10156,-10.85938 -13.64063,-17.42188c-3.53125,-6.5625 -5.29688,-12.12109 -5.29688,-16.67188c0,-14.64844 1.64063,-25.88672 4.92188,-33.71875c3.28906,-7.82422 7.08203,-13.75781 11.375,-17.79688c4.28906,-4.03125 8.45703,-7.5625 12.5,-10.59375c4.03906,-3.03125 6.81641,-6.82422 8.32813,-11.375c0.50781,-2.02344 1.14063,-7.19922 1.89063,-15.53125c0.75781,-8.32422 1.51563,-17.66406 2.26563,-28.01563c0.75781,-10.35547 1.39063,-19.95313 1.89063,-28.79688c0.50781,-8.83594 0.76563,-14.76563 0.76563,-17.79688c0,-6.0625 0.25,-9.85547 0.75,-11.375c0.50781,-1.51172 1.01953,-4.79297 1.53125,-9.84375c0,-4.03125 -0.13281,-7.94531 -0.39063,-11.73438c-0.25,-3.79297 -0.12109,-7.71094 0.39063,-11.75l9.84375,-134.84375l-63.625,32.57813c-0.51172,0 -3.67188,1.89844 -9.48438,5.6875c-5.80469,3.78125 -11.23047,5.67188 -16.28125,5.67188c-5.05469,0 -7.57813,-3.28125 -7.57813,-9.84375c0,-4.03906 3.15625,-8.58203 9.46875,-13.625c6.3125,-5.05078 13.12891,-9.72266 20.45313,-14.01563c7.32031,-4.30078 12.5,-7.20703 15.53125,-8.71875l56.0625,-26.51563c0,-13.125 0.50391,-25.49219 1.51563,-37.10938c1.00781,-11.625 2.26953,-23.75 3.78125,-36.375l21.21875,-212.10938c-5.05469,2.52344 -10.10547,5.04688 -15.15625,7.57813c-5.04297,2.52344 -10.34375,4.79297 -15.90625,6.8125l-90.14063,46.96875c-9.59375,5.55469 -19.19531,11.23438 -28.79688,17.04688c-9.59375,5.8125 -19.1875,12 -28.78125,18.5625c-2.52344,1.51172 -4.92188,3.02734 -7.20313,4.54688c-2.27344,1.51172 -4.92188,3.27734 -7.95313,5.29688c-2.52344,2.02344 -4.41406,3.53906 -5.67188,4.54688c-1.25781,1.01172 -3.40625,2.52734 -6.4375,4.54688c-2.01953,1.01172 -4.28906,2.02344 -6.8125,3.03125c-2.53125,1.01172 -5.0625,1.51563 -7.59375,1.51563c-7.0625,0 -10.59375,-3.78516 -10.59375,-11.35938c0,-4.55078 5.05469,-10.86328 15.15625,-18.9375c10.09375,-8.08203 22.83594,-16.92188 38.23438,-26.51563c15.40625,-9.60156 31.31641,-19.07031 47.73438,-28.40625c16.41406,-9.34375 30.9375,-17.55078 43.5625,-24.625c12.625,-7.07031 21.20703,-11.61719 25.75,-13.64063l65.90625,-31.0625zm0,0"/>
    </g>
   </g>
  </g>
  <g id="svg_9" fill="#292a61">
   <g id="svg_10">
    <g id="svg_11">
     <path id="svg_12" d="m973.96057,633.88477c0,-25.25 1.51563,-52.51953 4.54688,-81.8125c3.03125,-29.28906 7.06641,-58.32813 12.10938,-87.10938c5.05078,-28.78906 10.60938,-54.80469 16.67188,-78.04688c2.53125,-7.57031 5.05469,-16.03125 7.57813,-25.375c2.51953,-9.34375 5.80078,-17.42188 9.84375,-24.23438c4.03906,-6.82031 9.34375,-10.23438 15.90625,-10.23438c6.0625,0 9.84766,2.27734 11.35938,6.82813c1.51953,4.54297 1.64844,9.96875 0.39063,16.28125c-1.26172,6.3125 -2.90234,12.12109 -4.92188,17.42188c-2.02344,5.30469 -3.28906,8.96484 -3.79688,10.98438c-4.03125,15.15625 -8.70313,35.74219 -14.01563,61.75c-5.30469,26 -10.35547,54.40625 -15.15625,85.21875c-4.79297,30.80469 -8.45313,61.35547 -10.98438,91.65625c-2.52344,30.30469 -3.02734,57.69922 -1.51563,82.1875c1.51953,24.5 5.56641,43.31641 12.14063,56.45313c8.58203,-4.55469 15.64844,-11.375 21.20313,-20.46875c5.55078,-9.08594 10.34766,-17.91797 14.39063,-26.5c11.61328,-22.22656 22.97656,-45.71094 34.09375,-70.45313c11.11328,-24.75 22.72656,-47.98438 34.84375,-69.70313c4.03906,-8.07031 8.33203,-12.10938 12.875,-12.10938c2.01953,0 3.66016,0.88672 4.92188,2.65625c1.26953,1.76172 1.90625,3.65234 1.90625,5.67188c0,1.51172 -2.02344,6.30859 -6.0625,14.39063c-4.04297,8.08594 -8.21094,16.41797 -12.5,25c-4.29297,8.58594 -7.19922,14.14063 -8.71875,16.67188c-5.04297,10.60547 -10.72656,22.98047 -17.04688,37.125c-6.3125,14.13672 -12.5,28.02344 -18.5625,41.65625c-6.05469,13.63281 -11.85547,25.25 -17.40625,34.84375c-2.53125,4.03906 -5.94531,9.46875 -10.23438,16.28125c-4.29297,6.82031 -8.96484,12.75781 -14.01563,17.8125c-5.05469,5.05078 -10.85938,7.57813 -17.42188,7.57813c-10.10547,0 -18.0625,-5.05469 -23.875,-15.15625c-5.80469,-10.10547 -9.96875,-22.73438 -12.5,-37.89063c-2.52344,-15.14844 -4.16406,-30.79688 -4.92188,-46.95313c-0.75,-16.16406 -1.125,-30.30469 -1.125,-42.42188zm0,0"/>
    </g>
   </g>
  </g>
  <g id="svg_13" fill="#292a61">
   <g id="svg_14">
    <g id="svg_15">
     <path id="svg_16" d="m892.87634,354.35352c0,-6.57031 6.0625,-13.51953 18.1875,-20.84375c12.11719,-7.32031 27.39063,-14.51563 45.82813,-21.57813c18.4375,-7.07031 37.88672,-13.76563 58.34375,-20.07813c20.44922,-6.3125 39.26172,-11.73828 56.4375,-16.28125c17.16797,-4.55078 30.04297,-8.08594 38.625,-10.60938c10.60156,-3.03125 18.05078,-4.79688 22.34375,-5.29688c4.28906,-0.50781 7.06641,-2.15625 8.32813,-4.9375c1.26953,-2.78125 2.66016,-8.46094 4.17188,-17.04688c4.03906,-20.70703 8.71094,-34.97266 14.01563,-42.79688c5.30078,-7.83203 10.47656,-11.75 15.53125,-11.75c4.03906,0 7.44531,2.15234 10.21875,6.45313c2.78125,4.29297 4.17188,9.46484 4.17188,15.51563c0,4.55469 -0.25781,6.44922 -0.76563,5.6875c-0.5,-0.75781 -0.49609,0.88281 0.01563,4.92188c0,1.01172 0.125,2.27734 0.375,3.79688c0.25,1.51172 0.375,3.52734 0.375,6.04688c0,6.57422 -1.26563,9.85938 -3.79688,9.85938c-2.52344,0 -5.04688,0.38281 -7.57813,1.14063c-2.52344,0.75 -3.78125,5.16797 -3.78125,13.25c6.0625,0 12.75391,-0.87891 20.07813,-2.64063c7.32031,-1.76953 13.76563,-2.91016 19.32813,-3.42188c22.21875,-4.03906 44.4375,-7.70313 66.65625,-10.98438c22.21875,-3.28125 44.94531,-4.92188 68.1875,-4.92188c12.11328,0 20.94531,2.52734 26.5,7.57813c5.5625,5.05469 7.58203,10.10547 6.0625,15.15625c-1.51172,5.04297 -7.0625,7.5625 -16.65625,7.5625c-1.01172,-4.03906 -1.64844,-5.92969 -1.90625,-5.67188c-0.25,0.25 -2.64844,-0.12891 -7.1875,-1.14063c-2.02344,-0.50781 -6.0625,-0.76563 -12.125,-0.76563c-10.60547,0 -24.62109,1.14063 -42.04688,3.42188c-17.41797,2.27344 -35.46875,4.92188 -54.15625,7.95313c-18.6875,3.03125 -35.35547,5.9375 -50,8.71875c-14.64844,2.77344 -24.24219,4.66406 -28.78125,5.67188l-15.15625,155.29688c-0.51172,3.53125 -0.64063,7.32031 -0.39063,11.35938c0.25781,4.04297 0.39063,8.08594 0.39063,12.125c0,5.05469 -0.38281,8.33984 -1.14063,9.85938c-0.76172,1.51172 -1.14063,5.04297 -1.14063,10.59375c0,11.10547 0.25,23.85547 0.75,38.25c0.50781,14.39844 0.25781,25.63672 -0.75,33.71875c-0.5,4.54297 -0.875,13.50781 -1.125,26.89063c-0.25,13.38672 -0.50781,28.91797 -0.76563,46.59375c-0.25,17.67969 -0.375,35.48047 -0.375,53.40625c0,17.92578 0,34.21094 0,48.85938c0,14.64453 0.25391,25.25 0.76563,31.8125c0,5.55078 0.62891,14.00781 1.89063,25.375c1.25781,11.36328 1.50781,21.59375 0.75,30.6875c-0.76172,9.09375 -4.42188,13.64063 -10.98438,13.64063c-9.59375,0 -15.40234,-5.30859 -17.42188,-15.92188c-2.02344,-10.60547 -3.03125,-20.44922 -3.03125,-29.53125c-1.51172,-18.1875 -2.39844,-39.40234 -2.65625,-63.64063c-0.25,-24.23828 -0.25,-48.47656 0,-72.71875c0.25781,-24.25 0.39063,-45.46094 0.39063,-63.64063l2.26563,-35.60938c0,-7.0625 0,-17.91406 0,-32.5625c0,-14.64453 0.25,-30.17578 0.75,-46.59375c0.50781,-16.41406 1.01563,-31.44141 1.51563,-45.07813c0.50781,-13.63281 1.26953,-23.22656 2.28125,-28.78125c1.00781,-5.05078 1.64063,-11.11328 1.89063,-18.1875c0.25781,-7.07031 0.64063,-13.12891 1.14063,-18.17188l6.8125,-70.45313c-2.02344,0.5 -6.44531,1.51172 -13.26563,3.03125c-6.8125,1.51172 -12.23438,2.77344 -16.26563,3.78125c-24.75,6.0625 -48.35938,12.50781 -70.82813,19.32813c-22.47656,6.8125 -45.58594,14.76563 -69.32813,23.85938c-4.53906,2.01172 -8.70313,4.15625 -12.48438,6.4375c-3.78906,2.27344 -7.96094,4.41797 -12.51563,6.4375c-6.0625,2.52344 -9.97266,4.28906 -11.73438,5.29688c-1.76953,1.01172 -2.65625,2.27734 -2.65625,3.79688c0,1.51172 -1.25781,4.79297 -3.78125,9.84375c-2.01953,0.5 -4.03906,0.88281 -6.0625,1.14063c-2.01953,0.25 -4.29688,0.375 -6.82813,0.375c-4.03125,0 -7.6875,-0.88281 -10.96875,-2.65625c-3.28906,-1.76953 -4.9375,-5.17578 -4.9375,-10.21875zm0,0"/>
    </g>
   </g>
  </g>
  <g id="svg_17" fill="#292a61">
   <g id="svg_18">
    <g id="svg_19">
     <path id="svg_20" d="m1228.45605,555.10352c9.59375,-5.05078 20.19531,-11.99219 31.8125,-20.82813c11.625,-8.84375 17.94141,-19.32813 18.95313,-31.45313c-6.57422,1.01172 -13.52344,4.54688 -20.84375,10.60938c-7.32422,6.0625 -13.63672,12.88281 -18.9375,20.45313c-5.30469,7.57422 -8.96484,14.64844 -10.98438,21.21875zm-34.09375,18.17188c0,-12.625 4.16406,-26.25781 12.5,-40.90625c8.33203,-14.64453 18.6875,-27.14453 31.0625,-37.5c12.375,-10.35156 24.625,-15.53125 36.75,-15.53125c16.66406,0 25.375,6.3125 26.125,18.9375c0.75781,12.625 -4.66797,26.26172 -16.28125,40.90625c-6.0625,6.57422 -15.15625,14.15234 -27.28125,22.73438c-12.11719,8.58594 -23.98047,13.38281 -35.59375,14.39063c0,8.08594 0.25,15.28125 0.75,21.59375c0.50781,6.3125 4.04688,12.75 10.60938,19.3125c6.5625,6.5625 14.89453,9.84375 25,9.84375c13.13281,0 26.76953,-4.16016 40.90625,-12.48438c14.14453,-8.33203 25.00391,-15.28125 32.57813,-20.84375c3.03125,-2.51953 5.42578,-4.53516 7.1875,-6.04688c1.76953,-1.51953 3.92188,-3.28906 6.45313,-5.3125c10.60156,-8.08203 17.28906,-14.01563 20.0625,-17.79688c2.78125,-3.78906 5.17969,-6.31641 7.20313,-7.57813c2.01953,-1.25781 6.81641,-1.89063 14.39063,-1.89063c1.00781,5.55469 1.39063,9.33984 1.14063,11.35938c-0.25,2.02344 -2.14844,5.05469 -5.6875,9.09375c-9.08594,9.08594 -20.57422,19.4375 -34.46875,31.0625c-13.88672,11.61719 -28.78125,21.71484 -44.6875,30.29688c-15.90625,8.58594 -31.6875,12.875 -47.34375,12.875c-8.08594,0 -15.78906,-1.38281 -23.10938,-4.15625c-7.32422,-2.78125 -14.26563,-7.45703 -20.82813,-14.03125c-9.09375,-9.08203 -14.27734,-18.42188 -15.54688,-28.01563c-1.26172,-9.60156 -1.89063,-19.70703 -1.89063,-30.3125zm0,0"/>
    </g>
   </g>
  </g>
  <g id="svg_21" fill="#292a61">
   <g id="svg_22">
    <g id="svg_23">
     <path id="svg_24" d="m1368.58252,689.18164c-5.05469,0 -8.08594,-3.15625 -9.09375,-9.46875c-1.01172,-6.3125 -1.26563,-13.00391 -0.76563,-20.07813c0.50781,-7.07031 0.76563,-11.36328 0.76563,-12.875c-0.51172,-9.09375 -0.64063,-18.3125 -0.39063,-27.65625c0.25781,-9.34375 0.13281,-18.8125 -0.375,-28.40625c0,-3.53125 0.125,-10.21875 0.375,-20.0625c0.25781,-9.85156 1.01953,-20.33203 2.28125,-31.4375c1.25781,-11.11328 3.14844,-20.71094 5.67188,-28.79688c2.53125,-8.08203 5.81641,-12.125 9.85938,-12.125c10.10156,0 15.28125,3.28906 15.53125,9.85938c0.25,6.5625 -0.13281,15.14844 -1.14063,25.75c-0.5,3.53125 -0.75,7.44922 -0.75,11.75c0,4.29297 0,8.46094 0,12.5c0,5.04297 -0.25781,8.32422 -0.76563,9.84375c-0.5,1.51172 -0.75,4.79297 -0.75,9.84375c5.55078,-4.03906 10.59766,-8.71094 15.14063,-14.01563c4.55078,-5.30078 12.63281,-7.95313 24.25,-7.95313c3.53125,0 8.19531,-0.125 14,-0.375c5.8125,-0.25 12.00391,-0.375 18.57813,-0.375c11.10156,0 21.45313,0.63281 31.04688,1.89063c9.60156,1.26172 14.40625,4.41797 14.40625,9.46875c0,5.05469 -2.65234,8.33984 -7.95313,9.85938c-5.30469,1.51172 -11.74609,2.26563 -19.32813,2.26563c-5.05469,0 -10.23047,-0.125 -15.53125,-0.375c-5.30469,-0.25781 -9.97656,-0.39063 -14.01563,-0.39063c-14.13672,0 -23.60547,0.76172 -28.40625,2.28125c-4.79297,1.51172 -10.21875,7.32031 -16.28125,17.42188c-3.53125,6.5625 -6.94531,13.63281 -10.23438,21.20313c-3.28125,7.57422 -5.67969,15.90625 -7.1875,25c-1.52344,6.5625 -2.15625,13.38281 -1.90625,20.45313c0.25781,7.07422 -0.49609,13.01172 -2.26563,17.8125c-1.77344,4.79297 -6.69531,7.1875 -14.76563,7.1875zm0,0"/>
    </g>
   </g>
  </g>
  <g id="svg_25" fill="#292a61">
   <g id="svg_26">
    <g id="svg_27">
     <path id="svg_28" d="m1502.65173,652.82227c-9.60547,0 -15.79688,-5.80469 -18.57813,-17.42188c-2.76953,-11.61328 -3.14453,-26.13281 -1.125,-43.5625c2.01953,-17.42578 5.67969,-34.84766 10.98438,-52.26563c5.30078,-17.42578 11.23438,-31.94531 17.79688,-43.5625c6.57031,-11.61328 12.63281,-17.42188 18.1875,-17.42188c8.58203,0 12.61719,3.91797 12.10938,11.75c-0.5,7.82422 -3.02734,18.17188 -7.57813,31.04688c-4.54297,12.875 -9.08594,27.01563 -13.625,42.42188c-4.54297,15.40625 -6.8125,30.43359 -6.8125,45.07813l36.35938,-55.29688c1.50781,-3.03125 4.78906,-8.33203 9.84375,-15.90625c5.05078,-7.58203 10.73438,-14.65625 17.04688,-21.21875c6.3125,-6.5625 12.50012,-9.84375 18.56262,-9.84375c6.0625,0 10.85913,4.03906 14.39063,12.10938l4.54688,42.42188c0,4.55469 0.25,11.625 0.75,21.21875c0.50757,9.59375 1.64453,19.32031 3.40625,29.17188c1.76953,9.84375 4.67578,18.30469 8.71875,25.375c4.03906,7.07422 9.59766,10.60938 16.67188,10.60938c7.57031,0 15.52344,-4.54688 23.85938,-13.64063c8.33179,-9.09375 16.41016,-19.57031 24.23438,-31.4375c7.83203,-11.875 14.90625,-22.35156 21.21875,-31.4375c6.3125,-9.09375 11.23438,-13.64063 14.76563,-13.64063c7.58203,0 11.11719,2.90625 10.60938,8.71875c-0.5,5.80469 -3.02734,12.49609 -7.57837,20.07813c-4.54272,7.57422 -9.2146,14.64063 -14.01538,21.20313c-4.79297,6.5625 -7.69531,10.60547 -8.70313,12.125c-3.53125,4.54297 -8.32813,10.35156 -14.39063,17.42188c-6.0625,7.07422 -12.38281,13.64063 -18.95313,19.70313c-6.5625,6.05469 -12.87134,9.83984 -18.92188,11.35938c-5.05469,1.51172 -9.85547,2.26563 -14.40625,2.26563c-11.61719,0 -20.83594,-4.28906 -27.65625,-12.875c-6.8125,-8.58203 -11.98438,-17.92578 -15.51563,-28.03125c-5.05469,-15.15625 -7.83618,-28.66406 -8.34375,-40.53125c-0.5,-11.86328 -0.5,-21.96094 0,-30.29688c0.50757,-8.33203 -0.49609,-14.77344 -3.01575,-19.32813c-6.0625,4.04297 -12.50781,12.125 -19.32813,24.25c-6.8125,12.11719 -13.88281,25.12109 -21.20313,39.01563c-7.32422,13.88672 -14.64844,25.75781 -21.96875,35.60938c-7.32422,9.84375 -14.77344,14.76563 -22.34375,14.76563zm0,0"/>
    </g>
   </g>
  </g>
  <g id="svg_29" fill="#292a61">
   <g id="svg_30">
    <g id="svg_31">
     <path id="svg_32" d="m1732.14404,810.38477c0,5.5625 0.375,14.14844 1.125,25.76563c0.75781,11.61328 2.27344,23.85938 4.54688,36.73438c2.28125,12.88281 5.56641,24.125 9.85938,33.71875c4.28906,9.59375 9.71875,15.14453 16.28125,16.65625c5.5625,-3.53125 10.99219,-10.73047 16.29688,-21.59375c5.30078,-10.85547 9.84375,-22.59375 13.625,-35.21875c3.78906,-12.625 5.6875,-23.48438 5.6875,-32.57813l0,-28.78125c0,-11.61719 -3.53906,-23.10547 -10.60938,-34.46875c-7.07422,-11.36719 -15.78906,-21.08984 -26.14063,-29.17188c-10.34375,-8.07422 -20.57031,-12.10938 -30.67188,-12.10938l0,81.04688zm-121.20313,-78.01563c0,-6.57422 4.42188,-12.00781 13.26563,-16.29688c8.83594,-4.29297 18.80859,-7.70313 29.92188,-10.23438c11.10547,-2.52344 19.43359,-4.03125 24.98438,-4.53125c8.08594,-1.01172 13.01172,-1.64844 14.78125,-1.90625c1.76172,-0.25 2.89844,-4.66797 3.40625,-13.25c0.5,-12.11328 2.39844,-27.39063 5.6875,-45.82813c3.28125,-18.4375 7.44141,-38.13281 12.48438,-59.09375c5.05078,-20.95703 10.47656,-41.66016 16.28125,-62.10938c5.8125,-20.45703 11.875,-38.89063 18.1875,-55.29688c6.3125,-16.41406 12.5,-28.66406 18.5625,-36.75c6.5625,-8.08203 13.37891,-12.125 20.45313,-12.125c3.53906,0 6.57031,1.39063 9.09375,4.17188c2.51953,2.78125 3.78125,7.45313 3.78125,14.01563c0,9.09375 -0.50781,14.52734 -1.51563,16.29688c-1.01172,1.76172 -2.52734,2.89844 -4.54688,3.40625c-2.01172,0.5 -4.53125,2.89844 -7.5625,7.1875c-3.03125,4.29297 -6.57031,13.76172 -10.60938,28.40625c-5.05469,17.67969 -9.09375,31.94922 -12.125,42.8125c-3.03125,10.85547 -5.9375,21.83984 -8.71875,32.95313c-2.77344,11.10547 -6.17969,26.50781 -10.21875,46.20313c-1.51172,8.08594 -3.15234,18.69531 -4.92188,31.82813c-1.77344,13.125 -3.16406,24.23047 -4.17188,33.3125c3.03125,-1.00781 8.33203,-4.03516 15.90625,-9.07813c7.58203,-5.05078 15.78906,-10.98438 24.625,-17.79688c8.84375,-6.82031 17.30078,-13.39063 25.375,-19.70313c8.08203,-6.3125 14.14453,-11.23828 18.1875,-14.78125l55.29688,-52.26563c3.53906,-2.51953 7.07813,-3.78125 10.60938,-3.78125c5.55078,0 8.32813,3.02734 8.32813,9.07813c0,5.05469 -3.66406,11.49609 -10.98438,19.32813c-7.32422,7.82422 -15.27734,15.52734 -23.85938,23.10938c-8.58594,7.57422 -14.89844,13.125 -18.9375,16.65625l-102.26563,79.54688c29.28906,6.5625 50.625,20.32031 64,41.28125c13.38281,20.95703 20.07813,45.19531 20.07813,72.71875c0,27.53125 -5.30469,55.17969 -15.90625,82.95313c-3.53125,10.60156 -9.21484,21.58594 -17.04688,32.95313c-7.82422,11.36328 -18.55469,17.04688 -32.1875,17.04688c-11.61719,0 -21.21484,-5.55859 -28.79688,-16.67188c-7.57422,-11.10547 -13.76172,-25.11719 -18.5625,-42.03125c-4.78906,-16.91797 -8.44531,-34.34375 -10.96875,-52.28125c-2.53125,-17.92969 -4.42578,-34.33984 -5.6875,-49.23438c-1.25781,-14.89844 -2.14453,-25.375 -2.65625,-31.4375c-0.5,-4.54297 -0.24219,-9.33984 0.76563,-14.39063c1.01172,-5.05469 1.51563,-10.85938 1.51563,-17.42188c-8.58203,2.01953 -18.30078,6.05469 -29.15625,12.10938c-10.86328,6.0625 -23.61719,9.09375 -38.26563,9.09375c-9.09375,0 -14.01563,-1.77344 -14.76563,-5.3125c-0.75781,-3.53125 -1.14063,-7.82031 -1.14063,-12.85938zm0,0"/>
    </g>
   </g>
  </g>
  <g id="svg_33" fill="#292a61">
   <g id="svg_34">
    <g id="svg_35">
     <path id="svg_36" d="m1896.50439,674.79102c7.57031,-2.01953 14.39063,-8.71094 20.45313,-20.07813c6.0625,-11.36328 10.35156,-24.36719 12.875,-39.01563c2.53125,-14.64453 3.16016,-28.14844 1.89063,-40.51563c-1.26172,-12.375 -5.17188,-20.83594 -11.73438,-25.39063c-1.51172,5.5625 -4.28906,13.52344 -8.32813,23.875c-4.04297,10.34375 -7.96094,21.70313 -11.75,34.07813c-3.78125,12.375 -6.30859,24.5 -7.57813,36.375c-1.26172,11.86719 0.12891,22.08984 4.17188,30.67188zm-37.875,-25.76563c0,-6.5625 1.38281,-16.28125 4.15625,-29.15625c2.78125,-12.875 6.69531,-26.75781 11.75,-41.65625c5.05078,-14.90625 10.73438,-29.05078 17.04688,-42.4375c6.3125,-13.38281 13.12891,-24.36719 20.45313,-32.95313c7.32031,-8.58203 14.76953,-12.875 22.34375,-12.875c5.05078,0 8.58594,2.27734 10.60938,6.82813c2.01953,4.54297 2.52344,8.32813 1.51563,11.35938c-1.01172,2.52344 -2.90625,5.04688 -5.6875,7.57813c-2.77344,2.52344 -5.16797,5.29688 -7.1875,8.32813c1.00781,3.53125 3.53516,7.44531 7.57813,11.73438c4.03906,4.29297 8.07813,9.97656 12.10938,17.04688c4.03906,7.07422 6.69141,16.67188 7.95313,28.79688c1.26953,12.11719 -0.11719,28.02344 -4.15625,47.71875c-5.5625,26.26172 -14.40625,45.96094 -26.53125,59.09375c-12.11719,13.125 -23.98047,19.6875 -35.59375,19.6875c-9.59375,0 -18.05469,-4.92969 -25.375,-14.78125c-7.32422,-9.84375 -10.98438,-24.61328 -10.98438,-44.3125zm0,0"/>
    </g>
   </g>
  </g>
  <g id="svg_37" fill="#292a61">
   <g id="svg_38">
    <g id="svg_39">
     <path id="svg_40" d="m2002.54517,689.18164c-5.05469,0 -8.08594,-3.15625 -9.09375,-9.46875c-1.01172,-6.3125 -1.26563,-13.00391 -0.76563,-20.07813c0.50781,-7.07031 0.76563,-11.36328 0.76563,-12.875c-0.51172,-9.09375 -0.64063,-18.3125 -0.39063,-27.65625c0.25781,-9.34375 0.13281,-18.8125 -0.375,-28.40625c0,-3.53125 0.125,-10.21875 0.375,-20.0625c0.25781,-9.85156 1.01953,-20.33203 2.28125,-31.4375c1.25781,-11.11328 3.14844,-20.71094 5.67188,-28.79688c2.53125,-8.08203 5.81641,-12.125 9.85938,-12.125c10.10156,0 15.28125,3.28906 15.53125,9.85938c0.25,6.5625 -0.13281,15.14844 -1.14063,25.75c-0.5,3.53125 -0.75,7.44922 -0.75,11.75c0,4.29297 0,8.46094 0,12.5c0,5.04297 -0.25781,8.32422 -0.76563,9.84375c-0.5,1.51172 -0.75,4.79297 -0.75,9.84375c5.55078,-4.03906 10.59766,-8.71094 15.14063,-14.01563c4.55078,-5.30078 12.63281,-7.95313 24.25,-7.95313c3.53125,0 8.19531,-0.125 14,-0.375c5.8125,-0.25 12.00391,-0.375 18.57813,-0.375c11.10156,0 21.45313,0.63281 31.04688,1.89063c9.60156,1.26172 14.40625,4.41797 14.40625,9.46875c0,5.05469 -2.65234,8.33984 -7.95313,9.85938c-5.30469,1.51172 -11.74609,2.26563 -19.32813,2.26563c-5.05469,0 -10.23047,-0.125 -15.53125,-0.375c-5.30469,-0.25781 -9.97656,-0.39063 -14.01563,-0.39063c-14.13672,0 -23.60547,0.76172 -28.40625,2.28125c-4.79297,1.51172 -10.21875,7.32031 -16.28125,17.42188c-3.53125,6.5625 -6.94531,13.63281 -10.23438,21.20313c-3.28125,7.57422 -5.67969,15.90625 -7.1875,25c-1.52344,6.5625 -2.15625,13.38281 -1.90625,20.45313c0.25781,7.07422 -0.49609,13.01172 -2.26563,17.8125c-1.77344,4.79297 -6.69531,7.1875 -14.76563,7.1875zm0,0"/>
    </g>
   </g>
  </g>
  <g id="svg_41" fill="#292a61">
   <g id="svg_42">
    <g id="svg_43">
     <path id="svg_44" d="m2116.14575,599.79102c0,-11.11328 1.64063,-23.48828 4.92188,-37.125c3.28906,-13.63281 7.58594,-26.89063 12.89063,-39.76563c5.30078,-12.875 10.98438,-23.35156 17.04688,-31.4375c5.55078,-6.0625 11.10156,-9.09375 16.65625,-9.09375c4.55078,0 9.09766,1.26563 13.64063,3.79688c0.50781,2.52344 1.14063,4.28906 1.89063,5.29688c0.75781,1.01172 1.14063,3.28125 1.14063,6.8125c0,0.51172 -2.27734,5.3125 -6.82813,14.40625c-4.54297,9.08594 -9.46484,20.44531 -14.76563,34.07813c-5.30469,13.63672 -9.59375,28.03125 -12.875,43.1875c-3.28125,15.14844 -3.40625,29.03125 -0.375,41.65625c6.0625,-2.01953 11.36328,-5.92969 15.90625,-11.73438c4.53906,-5.8125 8.58203,-11.24219 12.125,-16.29688l45.45313,-66.65625c5.03906,-7.07031 9.32813,-13.25781 12.85938,-18.5625c3.53906,-5.30078 8.84766,-7.95313 15.92188,-7.95313c7.07031,0 11.23828,4.42188 12.5,13.26563c1.25781,8.83594 1.50781,18.80859 0.75,29.92188c-0.75,11.10547 -0.875,19.94531 -0.375,26.51563c2.53125,18.17969 6.44531,30.92969 11.75,38.25c5.30078,7.32422 11.48438,10.98438 18.54688,10.98438c8.59375,0 17.6875,-3.53516 27.28125,-10.60938c9.59375,-7.07031 19.1875,-15.27344 28.78125,-24.60938c9.59375,-9.34375 18.05078,-17.55078 25.375,-24.625c7.32031,-7.07031 12.75391,-10.60938 16.29688,-10.60938c3.03125,0 5.80469,0.63281 8.32813,1.89063c2.53125,1.26172 3.79688,3.91406 3.79688,7.95313c0,4.04297 -3.03125,9.47656 -9.09375,16.29688c-6.0625,6.8125 -12.63281,13.375 -19.70313,19.6875c-7.07422,6.3125 -12.125,10.98438 -15.15625,14.01563c-10.09375,9.59375 -21.07813,17.80469 -32.95313,24.625c-11.86719,6.8125 -23.60547,10.21875 -35.21875,10.21875c-12.625,0 -22.47656,-3.40625 -29.54688,-10.21875c-7.07422,-6.82031 -12.25,-15.40625 -15.53125,-25.75c-3.28125,-10.35156 -5.42969,-21.21094 -6.4375,-32.57813c-1.01172,-11.36328 -1.51563,-21.59375 -1.51563,-30.6875c-3.03125,2.02344 -6.69531,6.44531 -10.98438,13.26563c-4.29297,6.8125 -7.69922,12.24219 -10.21875,16.28125c-3.03125,5.05469 -7.32813,12 -12.89063,20.84375c-5.55469,8.83594 -11.74219,17.67188 -18.5625,26.51563c-6.8125,8.83594 -13.63281,16.28125 -20.45313,22.34375c-6.8125,6.05469 -13.25,9.07813 -19.3125,9.07813c-11.61719,0 -19.57031,-3.40625 -23.85938,-10.21875c-4.29297,-6.82031 -6.57031,-15.15625 -6.82813,-25c-0.25,-9.85156 -0.375,-19.07031 -0.375,-27.65625zm0,0"/>
    </g>
   </g>
  </g>
  <g id="svg_45" fill="#292a61">
   <g id="svg_46">
    <g id="svg_47">
     <path id="svg_48" d="m2411.56055,630.85352c-10.61719,0 -18.07031,-5.30078 -22.35938,-15.90625c-4.29297,-10.60156 -6.1875,-23.73438 -5.6875,-39.39063c0.50781,-15.65625 2.53125,-31.3125 6.0625,-46.96875c3.53906,-15.65625 7.96094,-28.78516 13.26563,-39.39063c5.30078,-10.61328 10.72656,-15.92188 16.28125,-15.92188c9.60156,0 15.28516,2.15234 17.04688,6.45313c1.76953,4.29297 1.39063,10.98438 -1.14063,20.07813c-2.52344,9.08594 -5.42188,20.57422 -8.70313,34.46875c-3.28125,13.88672 -4.92188,30.42188 -4.92188,49.60938c1.00781,-1.00781 1.76563,-1.76563 2.26563,-2.26563c0.50781,-0.50781 1.01563,-1.01563 1.51563,-1.51563l35.60938,-59.85938c3.03125,-5.03906 7.19531,-11.72656 12.5,-20.0625c5.30078,-8.33203 11.10938,-15.90625 17.42188,-22.71875c6.3125,-6.82031 12.5,-10.23438 18.5625,-10.23438c11.61328,0 19.1875,5.93359 22.71875,17.79688c3.53906,11.86719 5.3125,23.85938 5.3125,35.98438c5.55078,-1.00781 12.36719,-5.67969 20.45313,-14.01563c8.08203,-8.33203 15.40625,-15.53125 21.96875,-21.59375c3.53125,-4.03906 6.6875,-7.57813 9.46875,-10.60938c2.78125,-3.03125 6.1875,-5.55078 10.21875,-7.5625c5.05078,-2.53125 9.59766,-3.79688 13.64063,-3.79688c5.05078,0 9.34375,2.02344 12.875,6.0625c3.53906,4.04297 5.5625,11.49609 6.0625,22.35938c0.50781,10.85547 0.25781,23.35547 -0.75,37.5c-1.01172,14.13672 -2.15234,28.27734 -3.42188,42.42188c-1.26172,14.13672 -1.89063,26.50781 -1.89063,37.10938c0,23.23047 1.89453,39.51563 5.6875,48.85938c3.78906,9.34375 8.96875,14.01563 15.53125,14.01563c7.57031,0 16.03125,-5.04688 25.375,-15.14063c9.34375,-10.10156 18.6875,-21.97266 28.03125,-35.60938c9.34375,-13.63281 17.29688,-26.00781 23.85938,-37.125c3.53125,-5.55078 6.9375,-11.10156 10.21875,-16.65625c3.28906,-5.5625 8.97266,-8.34375 17.04688,-8.34375c1.51953,0 3.16016,1.01172 4.92188,3.03125c1.76953,2.02344 2.65625,4.29297 2.65625,6.8125c0,3.03125 -1.51563,7.32813 -4.54688,12.89063c-3.02344,5.55469 -6.17969,10.98047 -9.46875,16.28125c-3.28125,5.30469 -5.93359,9.46875 -7.95313,12.5c-2.02344,3.53125 -3.79297,6.5625 -5.3125,9.09375c-1.51172,2.52344 -3.52734,5.80469 -6.04688,9.84375c-2.02344,3.03125 -4.04297,5.68359 -6.0625,7.95313c-2.02344,2.27344 -4.29297,5.42969 -6.8125,9.46875c-9.59375,14.14844 -21.08594,26.52344 -34.46875,37.125c-13.38672,10.60156 -26.39063,15.90625 -39.01563,15.90625c-7.07422,0 -13.89063,-2.27734 -20.45313,-6.82813c-6.5625,-4.53906 -11.86719,-12.36328 -15.90625,-23.46875c-7.07422,-18.6875 -10.48438,-38.38281 -10.23438,-59.09375c0.25781,-20.70703 1.89844,-40.91016 4.92188,-60.60938c3.03125,-19.69531 4.54688,-36.86719 4.54688,-51.51563c-5.05469,3.54297 -11.24219,9.35547 -18.5625,17.4375c-7.32422,8.07422 -14.77344,15.52344 -22.34375,22.34375c-7.57422,6.8125 -14.89844,10.21875 -21.96875,10.21875c-11.61719,0 -19.57031,-5.55078 -23.85938,-16.65625c-4.29297,-11.11328 -6.4375,-22.22656 -6.4375,-33.34375c-8.58594,5.5625 -16.79297,15.41797 -24.625,29.5625c-7.82422,14.13672 -15.65234,29.03125 -23.48438,44.6875c-7.82422,15.65625 -15.65234,29.16797 -23.48438,40.53125c-7.82422,11.35547 -16.02734,17.28906 -24.60938,17.79688l-1.51563,0zm0,0"/>
    </g>
   </g>
  </g>
 </g>
</svg>