<svg width="2600" height="1052.999952" xmlns="http://www.w3.org/2000/svg" version="1.0" preserveAspectRatio="xMidYMid meet" zoomAndPan="magnify">
 <defs>
  <g id="svg_1"/>
 </defs>
 <g>
  <title>Layer 1</title>
  <path id="svg_4" stroke-miterlimit="4" stroke-width="6.85553" stroke="#ffffff" d="m292.51971,845.88226c0,-2.71484 0.11328,-7.12506 0.33984,-13.23047c0.33594,-5.99225 0.84766,-11.98828 1.52344,-17.98047c0.67969,-5.99219 1.24609,-9.72656 1.69922,-11.19531c-3.28125,0.45313 -5.14844,1.24213 -5.59766,2.375c-0.45313,1.24225 -1.58594,3.50391 -3.39453,6.7851c-2.82813,5.99225 -3.90234,12.09772 -3.22266,18.32037c0.67969,6.21875 3.5625,11.19531 8.65234,14.92578zm55.63672,-645.4375c0,-13.457 1.01953,-26.29297 3.05469,-38.50778c2.14844,-12.32419 3.22266,-24.99222 3.22266,-37.9961c0,-5.08984 0.45313,-11.30862 1.35547,-18.66013c0.90625,-7.46098 1.58594,-14.19143 2.03516,-20.18366c1.01953,-6.4453 1.41406,-11.14061 1.1875,-14.08196c-0.22656,-3.05081 0.33984,-5.3711 1.69922,-6.95318c1.35547,-1.69527 4.35156,-3.95702 8.98828,-6.7851c3.73047,1.92188 6.84375,4.07029 9.33203,6.4453c2.59766,2.26168 3.89844,6.39057 3.89844,12.38281c0,22.16408 -0.62109,41.16407 -1.86328,56.99611c-1.13281,15.71869 -2.60156,33.75775 -4.41016,54.1132c3.73047,-0.9062 8.48047,-2.60155 14.24609,-5.08983c5.76953,-2.60156 10.74609,-4.58203 14.92969,-5.93753c31.09766,-12.55072 64.57031,-24.82414 100.41797,-36.80853c35.84766,-12.10155 70.45313,-21.14841 103.8125,-27.14066c7.46484,-1.92188 20.80859,-4.4687 40.03516,-7.63277c19.22266,-3.2813 40.76563,-6.16412 64.62891,-8.65233c23.85938,-2.60162 46.64844,-3.90236 68.35938,-3.90236c23.18359,0 42.74609,2.09375 58.69141,6.27731c16.05847,4.18362 24.08594,12.04301 24.08594,23.57815c0,13.00388 -4.74609,22.89841 -14.24609,29.68359c-9.5,6.67192 -18.88672,10.46094 -28.16016,11.36723c2.26172,-6.44531 5.9375,-13.00397 11.02734,-19.67581c5.08984,-6.78516 8.14063,-13.23434 9.16016,-19.33985c-6.10938,-0.90622 -11.59375,-2.03516 -16.45313,-3.39063c-4.86328,-1.35934 -11.19922,-2.03909 -19,-2.03909c-23.63672,0 -44.16003,0.22661 -61.57422,0.67975c-17.30469,0.45306 -33.75781,1.64061 -49.3634,3.56248c-15.49207,1.80853 -31.83582,4.35544 -49.02332,7.63279c-17.07422,3.16795 -37.20313,7.51959 -60.38672,13.06248c-3.16797,0.90628 -10.34766,3.10941 -21.54297,6.61719c-11.08203,3.50395 -24.53906,7.6875 -40.37109,12.55081c-15.71875,4.8633 -32.0625,10.17966 -49.02344,15.94528c-16.85156,5.76563 -32.79688,11.47661 -47.83594,17.13286c-15.03906,5.53902 -27.53516,10.51559 -37.48828,14.92577c-9.95313,4.29688 -15.60547,7.85938 -16.96484,10.68744l-22.21875,218.14462c-0.45313,5.99219 -1.30078,12.94528 -2.54688,20.86319c-1.12891,7.91412 -1.69531,15.32431 -1.69531,22.22269c5.08984,-0.90619 13.0625,-3.56247 23.91797,-7.97266c10.96875,-4.41016 19.90234,-7.5195 26.80078,-9.332c8.37109,-2.82419 19.22656,-6.05075 32.57031,-9.668c13.45703,-3.73041 27.02734,-7.23822 40.71094,-10.51556c13.68359,-3.28131 24.70703,-5.37112 33.07813,-6.2774c9.72266,-1.35547 17.80859,-2.03513 24.25781,-2.03513c12.09766,0 19.28125,2.31641 21.54309,6.95309c2.37097,4.63678 2.37097,11.59375 0,20.86722c-2.26184,0.44919 -3.90259,0.78906 -4.922,1.01559c-0.90234,0.22662 -2.94141,0.56641 -6.10535,1.01953c-1.01965,-5.99609 -3.84387,-8.99219 -8.48059,-8.99219c-8.71094,0 -20.24219,1.52734 -34.60547,4.58203c-14.36328,2.9375 -29.68359,6.61331 -45.96887,11.02347c-16.17175,4.41016 -31.66406,9.04688 -46.48035,13.91016c-14.8125,4.86325 -26.85547,9.10547 -36.12891,12.72263c-3.28125,1.46875 -6.78516,2.88281 -10.51953,4.24222c-3.61719,1.35547 -7.51953,2.26166 -11.70313,2.71094l-22.22266,243.24997c5.54297,-0.45313 11.76172,-2.76947 18.66016,-6.95313c7.01172,-4.1875 13.0625,-7.18359 18.15234,-8.99219c18.99609,-8.36719 38.78516,-15.43756 59.36719,-21.20313c20.58203,-5.76953 41.33594,-10.29297 62.25391,-13.57031c4.18762,-0.90625 12.49597,-2.20703 24.9375,-3.90234c12.55078,-1.58203 27.70703,-3.33594 45.46094,-5.25775c17.86719,-1.80865 36.75391,-3.28131 56.65625,-4.41022c19.90234,-1.13287 39.35156,-1.69531 58.35168,-1.69531c26.91394,0 49.98425,1.80859 69.20691,5.42578c19.22656,3.73431 28.83984,10.74219 28.83984,21.03516c0,4.52344 -0.11328,7.35156 -0.33972,8.48053c-0.22668,1.24603 -0.96106,2.09363 -2.20715,2.54681c-1.12891,0.44922 -2.82422,2.31635 -5.08594,5.59766c-2.375,-1.92584 -4.12891,-3.90234 -5.2616,-5.93762c-1.12903,-2.03503 -3.44934,-4.12878 -6.95325,-6.27722c-3.50781,-2.03516 -10.34766,-3.789 -20.52734,-5.25781c-15.26563,-2.7149 -36.07422,-4.07031 -62.42188,-4.07031c-31.09766,0 -63.89453,1.35541 -98.38281,4.07031c-34.49219,2.82813 -68.30469,7.68756 -101.44153,14.58594c-33.13269,7.01166 -64.06238,16.73828 -92.78503,29.17578c-4.63672,1.92584 -8.48047,3.56244 -11.53516,4.92188c-2.94141,1.35547 -6.50391,3.2226 -10.6875,5.5976c-3.73047,1.80865 -7.46484,3.50403 -11.19531,5.0899c-3.61719,1.69531 -6.61328,3.22266 -8.98828,4.57806c-3.62109,2.375 -6.16406,7.01178 -7.63672,13.91022c-1.35547,7.01172 -2.14844,14.41797 -2.375,22.22266c-0.22266,7.91406 -0.5625,15.09369 -1.01563,21.54297c-1.35547,15.71875 -4.01563,26.57428 -7.97266,32.56641c-3.95703,6.10938 -8.48047,9.16016 -13.57031,9.16016c-4.63672,0 -9.5,-2.31647 -14.58984,-6.95313c-5.08594,-4.63672 -9.26953,-9.95319 -12.55078,-15.94531c-3.28125,-5.99609 -4.91797,-11.08203 -4.91797,-15.26563c0,-13.46088 1.52344,-23.80469 4.57813,-31.04291c3.05469,-7.12506 6.50391,-12.55469 10.34766,-16.28522c3.95703,-3.73047 7.80469,-7.01172 11.53516,-9.83984c3.73047,-2.71484 6.27734,-6.16418 7.63281,-10.3476c0.45313,-1.80865 1.01953,-6.55865 1.69531,-14.24615c0.67969,-7.57819 1.35938,-16.11719 2.03516,-25.61719c0.79297,-9.49615 1.41406,-18.31635 1.86719,-26.46094c0.45313,-8.02734 0.67969,-13.45709 0.67969,-16.28522c0,-5.539 0.22656,-9.04681 0.67578,-10.5155c0.45313,-1.35553 0.90625,-4.35547 1.35938,-8.99225c0,-3.73053 -0.11328,-7.34766 -0.33984,-10.85553c-0.22656,-3.39063 -0.11328,-6.95306 0.33984,-10.68744l9.16016,-123.65625l-58.52344,29.85156c-0.45313,0 -3.33594,1.75391 -8.64844,5.26172c-5.31641,3.50391 -10.29297,5.25781 -14.92969,5.25781c-4.63672,0 -6.95313,-2.99615 -6.95313,-8.99219c0,-3.73047 2.88281,-7.91406 8.64844,-12.55078c5.88281,-4.63672 12.15625,-8.93359 18.83203,-12.89447c6.67188,-3.95709 11.42188,-6.61334 14.24609,-7.96881l51.39844,-24.25778c0,-12.10153 0.45313,-23.46487 1.35547,-34.09763c0.90625,-10.62894 2.09375,-21.76953 3.5625,-33.41406l19.33984,-194.56647c-4.63672,2.375 -9.27344,4.75003 -13.91016,7.12505c-4.52344,2.26169 -9.32813,4.29683 -14.41797,6.10542l-82.78125,43.08597c-8.82031,5.08981 -17.64063,10.293 -26.46094,15.6055c-8.70703,5.31638 -17.47266,11.02734 -26.29297,17.13278c-2.37494,1.35941 -4.63666,2.76956 -6.78516,4.24216c-2.03516,1.35547 -4.4101,2.93753 -7.125,4.75003c-2.375,1.80862 -4.12506,3.22263 -5.25781,4.23828c-1.12891,0.90628 -3.10938,2.26175 -5.93744,4.07425c-1.80865,0.90231 -3.84375,1.86325 -6.10553,2.88281c-2.375,0.90231 -4.69141,1.35547 -6.95306,1.35547c-6.56256,0 -9.8399,-3.50397 -9.8399,-10.51566c0,-4.18356 4.63672,-9.95316 13.91016,-17.30466c9.2735,-7.46097 20.9765,-15.54691 35.11328,-24.25397c14.13672,-8.82031 28.72266,-17.53125 43.76172,-26.12497c15.04297,-8.59378 28.32813,-16.1133 39.86328,-22.55859c11.64844,-6.55859 19.56641,-10.74609 23.75,-12.55469l60.38672,-28.49612zm441.12109,387.76953c0,-23.17969 1.35547,-48.17194 4.07043,-74.97272c2.828,-26.91794 6.55847,-53.54678 11.19519,-79.89838c4.63672,-26.46091 9.72656,-50.37888 15.26563,-71.75c2.37488,-6.89844 4.69531,-14.6445 6.95703,-23.24216c2.375,-8.59378 5.37109,-16 8.98828,-22.21872c3.73438,-6.22266 8.65234,-9.33206 14.75781,-9.33206c5.54297,0 8.99219,2.09375 10.34766,6.27737c1.35938,4.07028 1.47266,9.04684 0.33984,14.92575c-1.12903,5.7695 -2.65637,11.08594 -4.57813,15.94528c-1.80859,4.86334 -2.94141,8.19928 -3.39453,10.00787c-3.73047,13.9101 -8.02734,32.79681 -12.89063,56.65625c-4.86328,23.86328 -9.5,49.92963 -13.91016,78.19916c-4.41016,28.27344 -7.80078,56.32031 -10.17578,84.13672c-2.26172,27.70709 -2.71484,52.81244 -1.35938,75.31641c1.47266,22.50391 5.20313,39.75 11.19531,51.73822c7.91797,-4.18744 14.41797,-10.46088 19.50781,-18.83203c5.08984,-8.25378 9.5,-16.33972 13.23047,-24.25385c10.63281,-20.35547 21.03516,-41.89844 31.21094,-64.62891c10.17969,-22.73047 20.86719,-44.04688 32.0625,-63.95313c3.61719,-7.34766 7.51953,-11.0235 11.70313,-11.0235c1.92188,0 3.44922,0.78912 4.58203,2.37506c1.12891,1.58203 1.69531,3.33594 1.69531,5.25781c0,1.35547 -1.86719,5.76563 -5.59766,13.23047c-3.73438,7.3515 -7.57813,14.98438 -11.53516,22.89844c-3.84375,7.80475 -6.44531,12.89453 -7.80469,15.26953c-4.63672,9.72266 -9.89453,21.08984 -15.77344,34.09375c-5.76965,12.89063 -11.42188,25.61328 -16.96484,38.16797c-5.53906,12.55078 -10.85547,23.18359 -15.94531,31.89056c-2.375,3.73047 -5.53894,8.70703 -9.49609,14.92584c-3.84766,6.33203 -8.08594,11.81641 -12.72266,16.45313c-4.63672,4.63666 -9.95313,6.95703 -15.94531,6.95703c-9.27344,0 -16.625,-4.63666 -22.05481,-13.91016c-5.31238,-9.2735 -9.15625,-20.86328 -11.53113,-34.77344c-2.26172,-13.91016 -3.73438,-28.27344 -4.41016,-43.08594c-0.67969,-14.81641 -1.01953,-27.76172 -1.01953,-38.84766zm-74.32813,-256.47653c0,-5.99606 5.59766,-12.32809 16.79285,-19c11.08215,-6.78519 25.10559,-13.39841 42.07043,-19.84769c16.84766,-6.55856 34.66016,-12.71872 53.42969,-18.48822c18.66016,-5.76563 35.90625,-10.74222 51.73828,-14.92584c15.71875,-4.18353 27.53516,-7.4101 35.45313,-9.67188c9.72656,-2.82419 16.51172,-4.46481 20.35547,-4.91797c3.95703,-0.45313 6.50391,-1.92186 7.63281,-4.41016c1.24609,-2.60156 2.54297,-7.85939 3.90234,-15.77342c3.73047,-19 8.02734,-32.06247 12.89063,-39.18753c4.86328,-7.23436 9.61328,-10.85539 14.25,-10.85539c3.73047,0 6.83984,1.98041 9.32813,5.93744c2.60156,3.95709 3.90234,8.70706 3.90234,14.25003c0,4.18356 -0.28125,5.93748 -0.84766,5.25783c-0.45313,-0.67967 -0.45313,0.84767 0,4.57809c0,0.90627 0.11328,2.03908 0.33984,3.39456c0.33984,1.35548 0.50781,3.22261 0.50781,5.59763c0,5.99217 -1.1875,8.98827 -3.5625,8.98827c-2.26184,0 -4.57813,0.33984 -6.95313,1.01953c-2.26172,0.67969 -3.39453,4.75003 -3.39453,12.21489c5.54297,0 11.64844,-0.79301 18.32031,-2.37503c6.78516,-1.6992 12.72266,-2.77342 17.8125,-3.22267c20.35553,-3.73438 40.711,-7.07025 61.06647,-10.0078c20.35547,-3.0547 41.21875,-4.58205 62.59375,-4.58205c11.08203,0 19.16785,2.32037 24.25391,6.95313c5.08984,4.63675 6.95691,9.27344 5.59766,13.91022c-1.35559,4.6367 -6.44531,6.95697 -15.26563,6.95697c-0.90234,-3.73436 -1.52734,-5.48436 -1.86731,-5.25783c-0.22253,0.22267 -2.37488,-0.11327 -6.44519,-1.01949c-1.92188,-0.45314 -5.65234,-0.67966 -11.19531,-0.67966c-9.72266,0 -22.61731,1.07422 -38.67578,3.22261c-15.94531,2.03911 -32.51172,4.46878 -49.69922,7.29686c-17.07831,2.71094 -32.34381,5.37112 -45.80084,7.97266c-13.34375,2.48828 -22.10938,4.18362 -26.29297,5.08597l-13.91016,142.48831c-0.45313,3.28122 -0.5625,6.7851 -0.33997,10.51947c0.22668,3.61722 0.33997,7.29297 0.33997,11.02347c0,4.63669 -0.33997,7.63672 -1.01563,8.99219c-0.67969,1.35547 -1.01953,4.63672 -1.01953,9.83981c0,10.17578 0.22656,21.87891 0.67969,35.11328c0.45313,13.11722 0.22656,23.40628 -0.67969,30.87112c-0.45313,4.1835 -0.84766,12.43747 -1.1875,24.76559c-0.22656,12.21478 -0.45313,26.40625 -0.67969,42.57813c-0.22266,16.17188 -0.33594,32.51172 -0.33594,49.02344c0,16.39453 0,31.32416 0,44.78125c0,13.45703 0.22656,23.18365 0.67578,29.17578c0,5.08984 0.56628,12.83588 1.69922,23.23828c1.24219,10.40631 1.52332,19.78906 0.84766,28.1601c-0.67969,8.36725 -4.07031,12.55084 -10.17969,12.55084c-8.70703,0 -14.02344,-4.86334 -15.94531,-14.586c-1.80859,-9.7265 -2.71497,-18.77332 -2.71497,-27.14056c-1.35535,-16.625 -2.203,-36.07422 -2.54285,-58.35553c-0.22656,-22.27734 -0.22656,-44.49603 0,-66.664c0.33984,-22.2774 0.50781,-41.72656 0.50781,-58.35156l2.03503,-32.73825c0,-6.44528 0,-16.39844 0,-29.85544c0,-13.45709 0.22668,-27.70706 0.67981,-42.74612c0.45313,-15.03906 0.90625,-28.78128 1.35938,-41.21875c0.44922,-12.55469 1.12891,-21.375 2.03516,-26.46091c1.01563,-4.63675 1.63672,-10.17975 1.86328,-16.62506c0.22656,-6.55856 0.56641,-12.15619 1.01953,-16.79294l6.27734,-64.62888c-1.92578,0.45313 -5.99609,1.41406 -12.21484,2.88278c-6.21875,1.3555 -11.19543,2.48831 -14.9259,3.3945c-22.73035,5.53912 -44.3866,11.47662 -64.96863,17.80865c-20.58203,6.21869 -41.78516,13.51563 -63.61328,21.88281c-4.18359,1.80853 -7.97266,3.789 -11.36328,5.9375c-3.50781,2.03516 -7.35156,3.957 -11.53516,5.76556c-5.54297,2.37503 -9.10156,4.01569 -10.6875,4.92191c-1.69531,0.90234 -2.54297,2.08987 -2.54297,3.5625c0,1.35544 -1.13281,4.35153 -3.39453,8.98831c-1.922,0.45306 -3.78516,0.79294 -5.59766,1.01947c-1.80847,0.22659 -3.89844,0.33987 -6.27344,0.33987c-3.73438,0 -7.07031,-0.79294 -10.00781,-2.375c-3.05469,-1.69925 -4.58203,-4.86325 -4.58203,-9.5zm307.72266,184.21481c8.82037,-4.63669 18.54694,-11.02347 29.17584,-19.16797c10.74219,-8.14059 16.56641,-17.75385 17.47266,-28.83591c-5.99609,0.90628 -12.38281,4.12888 -19.16797,9.66797c-6.67188,5.543 -12.44141,11.82028 -17.30469,18.832c-4.85938,6.89459 -8.25403,13.39847 -10.17584,19.50391zm-31.21094,16.625c0,-11.53522 3.78906,-24.03122 11.36328,-37.48825c7.69141,-13.457 17.19141,-24.93362 28.50006,-34.43362c11.42175,-9.5 22.67188,-14.24994 33.75391,-14.24994c15.26563,0 23.23828,5.82416 23.91797,17.47266c0.79285,11.53513 -4.12915,24.03119 -14.75781,37.48822c-5.65234,5.99222 -14.02344,12.94916 -25.10547,20.86334c-11.08203,7.80463 -21.9375,12.15619 -32.56659,13.06244c0,7.46484 0.22668,14.07806 0.67578,19.84766c0.45325,5.76569 3.6759,11.64453 9.67206,17.64063c5.99219,6.10547 13.625,9.16016 22.89832,9.16016c12.10168,0 24.59778,-3.789 37.4884,-11.36719c13.00391,-7.68756 22.95703,-14.07813 29.85547,-19.16797c2.82422,-2.375 5.03125,-4.23834 6.61328,-5.59772c1.69922,-1.46869 3.67578,-3.10931 5.9375,-4.91791c9.72656,-7.35162 15.83203,-12.77734 18.32031,-16.2851c2.60156,-3.50397 4.80469,-5.82428 6.61719,-6.95319c1.92188,-1.13281 6.33203,-1.69922 13.23047,-1.69922c1.01563,5.08978 1.41406,8.53906 1.1875,10.34766c-0.22681,1.8125 -1.98047,4.58203 -5.25781,8.31244c-8.37109,8.36725 -18.94531,17.86725 -31.72266,28.5c-12.66406,10.62897 -26.29309,19.9024 -40.87891,27.81653c-14.58984,7.91791 -29.06641,11.87494 -43.42578,11.87494c-7.46484,0 -14.53125,-1.24219 -21.20313,-3.73053c-6.67194,-2.60156 -13.06268,-6.95697 -19.16803,-13.06238c-8.25781,-8.25397 -13.00781,-16.79309 -14.25,-25.61334c-1.13281,-8.82031 -1.69531,-18.09375 -1.69531,-27.82031zm159.74603,106.35938c-4.6366,0 -7.40613,-2.88672 -8.3125,-8.6524c-0.90613,-5.88275 -1.12878,-12.04291 -0.67957,-18.48822c0.45313,-6.44928 0.67957,-10.40625 0.67957,-11.875c-0.45313,-8.25781 -0.56641,-16.67975 -0.33972,-25.27734c0.22644,-8.59375 0.11328,-17.30072 -0.33984,-26.12109c0,-3.28125 0.11316,-9.38672 0.33984,-18.32031c0.22644,-9.04694 0.90613,-18.66019 2.03516,-28.83594c1.24609,-10.29294 2.99609,-19.11325 5.25757,-26.46091c2.37512,-7.46484 5.37512,-11.19922 8.99243,-11.19922c9.27344,0 14.02344,3.05469 14.25,9.16013c0.22656,5.99612 -0.11353,13.8555 -1.01953,23.58203c-0.45313,3.27734 -0.67969,6.89459 -0.67969,10.8555c0,3.84375 0,7.63278 0,11.36319c0,4.63678 -0.22266,7.69147 -0.67578,9.16022c-0.45313,1.35938 -0.67969,4.35553 -0.67969,8.99219c5.0896,-3.73438 9.72644,-8.03125 13.91016,-12.89459c4.18359,-4.85931 11.58984,-7.29291 22.22266,-7.29291c3.2771,0 7.57397,-0.11328 12.89063,-0.33984c5.31628,-0.22662 10.96875,-0.33984 16.96094,-0.33984c10.17969,0 19.67969,0.56641 28.5,1.69922c8.82031,1.12891 13.23047,4.01172 13.23047,8.64844c0,4.63672 -2.42969,7.69141 -7.29297,9.16022c-4.86328,1.35931 -10.80078,2.0351 -17.8125,2.0351c-4.63672,0 -9.38672,-0.11328 -14.25,-0.33588c-4.86328,-0.22662 -9.10156,-0.3399 -12.72266,-0.3399c-13.00403,0 -21.71094,0.67578 -26.12109,2.03516c-4.4104,1.35547 -9.38672,6.67181 -14.92578,15.94531c-3.28125,5.99225 -6.44934,12.49609 -9.50024,19.50781c-2.94116,6.8985 -5.0896,14.53125 -6.44531,22.89844c-1.47266,5.99219 -2.09351,12.26953 -1.86707,18.82813c0.33997,6.44525 -0.33972,11.875 -2.03503,16.28522c-1.58203,4.4101 -6.10571,6.61713 -13.57043,6.61713zm123.07825,-33.41797c-8.82031,0 -14.53125,-5.31641 -17.13281,-15.94531c-2.48828,-10.62897 -2.82813,-23.91797 -1.01563,-39.86328c1.92188,-16.05859 5.3125,-32.05859 10.17578,-48.00388c4.86316,-16.05865 10.29297,-29.40231 16.28516,-40.03513c5.99219,-10.62894 11.53516,-15.94531 16.62488,-15.94531c7.91418,0 11.64844,3.62103 11.19543,10.85934c-0.45313,7.12109 -2.77344,16.62109 -6.95715,28.49612c-4.18347,11.76166 -8.36707,24.71085 -12.55066,38.84363c-4.18372,14.13684 -6.27734,27.87897 -6.27734,41.22272l33.41797,-50.71869c1.35547,-2.71487 4.35156,-7.52347 8.98816,-14.42194c4.63684,-7.00781 9.83997,-13.51175 15.60559,-19.50388c5.76953,-6.10941 11.42188,-9.16016 16.96484,-9.16016c5.65234,0 10.06641,3.73044 13.23047,11.19528l4.24219,38.84375c0,4.18353 0.22656,10.68744 0.67578,19.50781c0.45313,8.82031 1.47253,17.75391 3.05457,26.80072c1.69543,9.047 4.35559,16.79309 7.97266,23.2384c3.73059,6.44519 8.87903,9.67181 15.4375,9.67181c6.89856,0 14.13684,-4.12897 21.71106,-12.38672c7.69141,-8.36719 15.09766,-17.98047 22.22266,-28.83588c7.23828,-10.96881 13.73828,-20.58209 19.50781,-28.83606c5.87891,-8.36713 10.40234,-12.55072 13.57019,-12.55072c7.01184,0 10.28918,2.65619 9.83606,7.96881c-0.44934,5.31635 -2.76953,11.48041 -6.95313,18.49207c-4.18359,6.8985 -8.48047,13.34381 -12.89075,19.33594c-4.41003,5.99615 -7.07019,9.72662 -7.97253,11.19543c-3.28125,4.18341 -7.69153,9.5 -13.23047,15.94531c-5.54297,6.44519 -11.36719,12.49597 -17.47266,18.15222c-5.99609,5.53906 -11.76184,8.98834 -17.30469,10.34778c-4.63672,1.35541 -9.04688,2.0351 -13.23047,2.0351c-10.62891,0 -19.05469,-3.90234 -25.27356,-11.70703c-6.21863,-7.91412 -10.96863,-16.50787 -14.24988,-25.78125c-4.63672,-13.91016 -7.17969,-26.29297 -7.63281,-37.14844c-0.45313,-10.85547 -0.45313,-20.12897 0,-27.82031c0.45313,-7.69138 -0.50781,-13.57028 -2.88281,-17.64063c-5.54297,3.61722 -11.42188,11.02344 -17.64063,22.22266c-6.22266,11.08197 -12.72266,23.01172 -19.50781,35.78912c-6.67188,12.66791 -13.40234,23.52338 -20.1875,32.57025c-6.67188,9.04688 -13.45703,13.57031 -20.35547,13.57031zm210.45691,144.52344c0,5.08978 0.33606,12.94916 1.01575,23.57806c0.67969,10.62897 2.03516,21.82428 4.07031,33.58606c2.14844,11.87494 5.20313,22.2226 9.16016,31.04291c3.95703,8.82031 8.93359,13.91016 14.92969,15.26563c5.08594,-3.16412 10.0625,-9.78125 14.92578,-19.84381c4.86328,-9.95319 9.04688,-20.69525 12.55078,-32.23047c3.50781,-11.53516 5.26172,-21.48828 5.26172,-29.85541l0,-26.46094c0,-10.63287 -3.28137,-21.14844 -9.83984,-31.55078c-6.44531,-10.40619 -14.41797,-19.3399 -23.91797,-26.80469c-9.5,-7.34772 -18.88672,-11.0235 -28.15637,-11.0235l0,74.29694zm-111.10925,-71.58203c0,-5.99609 4.07031,-10.97266 12.21484,-14.92963c8.02734,-3.95709 17.13281,-7.12506 27.30859,-9.5c10.17969,-2.26178 17.8125,-3.61731 22.90234,-4.07037c7.46094,-0.90234 11.98438,-1.46875 13.57031,-1.69531c1.58203,-0.22662 2.65625,-4.29688 3.22266,-12.21484c0.44922,-11.08203 2.20313,-25.04688 5.25781,-41.89844c2.9375,-16.961 6.72656,-35.05469 11.36328,-54.28131c4.63672,-19.22266 9.61328,-38.2226 14.92969,-56.9921c5.3125,-18.77347 10.85547,-35.67969 16.62109,-50.72269c5.76953,-15.039 11.48047,-26.289 17.13281,-33.75385c5.99609,-7.35159 12.21484,-11.02734 18.66016,-11.02734c3.28125,0 6.05078,1.30075 8.3125,3.90228c2.375,2.48828 3.5625,6.73053 3.5625,12.72269c0,8.36719 -0.50781,13.39841 -1.52734,15.09763c-0.90625,1.58206 -2.26172,2.60162 -4.07031,3.05081c-1.80859,0.45313 -4.12891,2.66019 -6.95703,6.61719c-2.71094,3.84375 -5.9375,12.49606 -9.66797,25.95309c-4.63672,16.28519 -8.36719,29.40237 -11.19531,39.35544c-2.71484,9.94928 -5.37109,20.01566 -7.97266,30.19144c-2.4884,10.17969 -5.59766,24.3125 -9.32813,42.40625c-1.35938,7.35156 -2.88672,17.07806 -4.58203,29.17975c-1.58203,11.98431 -2.82825,22.16406 -3.73047,30.53119c2.71472,-0.9024 7.51953,-3.67584 14.41797,-8.3125c7.01172,-4.63672 14.53125,-10.0625 22.5625,-16.28516c8.1405,-6.33203 15.94128,-12.38287 23.40625,-18.1485c7.46472,-5.76556 13.00391,-10.28894 16.625,-13.57025l50.71875,-48.00391c3.27734,-2.26172 6.55859,-3.39459 9.83972,-3.39459c5.08606,0 7.63293,2.76959 7.63293,8.31256c0,4.63666 -3.39453,10.57416 -10.17969,17.8125c-6.67188,7.125 -13.96497,14.19135 -21.88281,21.20313c-7.80078,6.89844 -13.57043,11.98822 -17.30078,15.26563l-93.80469,72.94141c26.91406,5.99219 46.47656,18.60162 58.69141,37.82813c12.32813,19.22266 18.48828,41.44531 18.48828,66.664c0,25.21881 -4.86328,50.60547 -14.58594,76.16412c-3.28125,9.72266 -8.53906,19.78906 -15.77747,30.19141c-7.12488,10.40625 -16.96082,15.60547 -29.5155,15.60547c-10.62891,0 -19.44922,-5.08594 -26.46094,-15.26563c-6.89844,-10.17578 -12.55078,-23.07037 -16.96094,-38.67578c-4.41406,-15.49219 -7.75,-31.4375 -10.01184,-47.836c-2.37488,-16.39844 -4.12488,-31.43744 -5.25769,-45.12103c-1.12903,-13.68359 -1.92188,-23.29688 -2.375,-28.83594c-0.45313,-4.18359 -0.22656,-8.59381 0.67969,-13.23041c0.90625,-4.63678 1.35547,-9.95319 1.35547,-15.94543c-7.80078,1.80865 -16.67969,5.48438 -26.62891,11.0235c-10.06641,5.54297 -21.76953,8.31256 -35.1134,8.31256c-8.37097,0 -12.89453,-1.64063 -13.57019,-4.91797c-0.67969,-3.16797 -1.01953,-7.06659 -1.01953,-11.70319zm261.89453,-52.75781c6.89844,-1.92188 13.11719,-8.08594 18.66016,-18.48828c5.65234,-10.40234 9.61328,-22.27734 11.875,-35.62109c2.375,-13.45703 2.9375,-25.83984 1.69531,-37.14844c-1.13281,-11.42188 -4.69531,-19.22656 -10.6875,-23.41013c-1.46875,5.08981 -4.07031,12.38278 -7.80078,21.88278c-3.62109,9.5 -7.18359,19.96094 -10.68762,31.38275c-3.39441,11.30865 -5.71094,22.39063 -6.95691,33.24609c-1.12891,10.85559 0.17188,20.24231 3.90234,28.15631zm-34.77344,-23.57813c0,-6.10553 1.24219,-15.03906 3.73047,-26.80072c2.60156,-11.87506 6.22266,-24.59381 10.85938,-38.16406c4.63281,-13.68365 9.83594,-26.63284 15.60547,-38.84772c5.76563,-12.32422 11.98438,-22.44528 18.65625,-30.36325c6.78516,-7.91406 13.68359,-11.87503 20.69531,-11.87503c4.63672,0 7.85938,2.09378 9.66797,6.2774c1.81238,4.18353 2.2616,7.69135 1.35925,10.51556c-0.90613,2.26178 -2.65613,4.58206 -5.25769,6.95703c-2.4884,2.26178 -4.63672,4.80475 -6.44531,7.63281c0.90234,3.16794 3.16394,6.73053 6.78516,10.68753c3.73047,3.95703 7.46082,9.21484 11.19531,15.77341c3.73047,6.44531 6.16016,15.21094 7.29297,26.29297c1.12891,11.08209 -0.172,25.67181 -3.90234,43.76563c-5.08984,24.08594 -13.17578,42.17963 -24.25781,54.28119c-11.08203,11.98834 -21.9375,17.98053 -32.56641,17.98053c-8.82031,0 -16.625,-4.52344 -23.41028,-13.57031c-6.67175,-9.04694 -10.00769,-22.5625 -10.00769,-40.54297zm131.94141,36.8125c-4.63672,0 -7.40625,-2.88672 -8.3125,-8.6524c-0.90234,-5.88275 -1.12891,-12.04291 -0.67969,-18.48822c0.45313,-6.44928 0.67969,-10.40625 0.67969,-11.875c-0.45313,-8.25781 -0.56641,-16.67975 -0.33984,-25.27734c0.22656,-8.59375 0.11328,-17.30072 -0.33984,-26.12109c0,-3.28125 0.11328,-9.38672 0.33984,-18.32031c0.22656,-9.04694 0.90625,-18.66019 2.03516,-28.83594c1.24609,-10.29294 3,-19.11325 5.26172,-26.46091c2.37109,-7.46484 5.37109,-11.19922 8.98816,-11.19922c9.27356,0 14.02356,3.05469 14.25012,9.16013c0.22656,5.99612 -0.11328,13.8555 -1.01953,23.58203c-0.45313,3.27734 -0.6759,6.89459 -0.6759,10.8555c0,3.84375 0,7.63278 0,11.36319c0,4.63678 -0.22644,7.69147 -0.67957,9.16022c-0.45313,1.35938 -0.67969,4.35553 -0.67969,8.99219c5.08984,-3.73438 9.72644,-8.03125 13.91016,-12.89459c4.18359,-4.85931 11.58984,-7.29291 22.22266,-7.29291c3.27734,0 7.5741,-0.11328 12.89063,-0.33984c5.31641,-0.22662 10.96875,-0.33984 16.96094,-0.33984c10.17969,0 19.67969,0.56641 28.5,1.69922c8.82031,1.12891 13.23047,4.01172 13.23047,8.64844c0,4.63672 -2.42969,7.69141 -7.29297,9.16022c-4.86328,1.35931 -10.8009,2.0351 -17.8125,2.0351c-4.63672,0 -9.38684,-0.11328 -14.25012,-0.33588c-4.85925,-0.22662 -9.10156,-0.3399 -12.71863,-0.3399c-13.00781,0 -21.71484,0.67578 -26.12512,2.03516c-4.41003,1.35547 -9.3866,6.67181 -14.92566,15.94531c-3.28125,5.99225 -6.44531,12.49609 -9.5,19.50781c-2.94141,6.8985 -5.08984,14.53125 -6.44531,22.89844c-1.47266,5.99219 -2.09375,12.26953 -1.86719,18.82813c0.33984,6.44525 -0.33984,11.875 -2.03516,16.28522c-1.58203,4.4101 -6.10547,6.61713 -13.57031,6.61713zm104.25,-82.10162c0,-10.17963 1.46875,-21.48822 4.41016,-33.92572c3.05469,-12.55466 7.01172,-24.71094 11.87488,-36.4726c4.8634,-11.87115 10.12122,-21.48441 15.77356,-28.836c5.08984,-5.65228 10.17969,-8.48044 15.26917,-8.48044c4.07068,0 8.19958,1.18753 12.38318,3.56247c0.45313,2.26178 1.01538,3.90237 1.69531,4.91797c0.79272,0.90628 1.1875,2.94141 1.1875,6.1055c0,0.56644 -2.09375,5.0351 -6.27734,13.40237c-4.18384,8.25385 -8.70703,18.66013 -13.57031,31.21091c-4.86328,12.44131 -8.82043,25.61325 -11.875,39.52335c-2.9375,13.91022 -3.05078,26.63287 -0.33594,38.16809c5.53906,-1.80865 10.40222,-5.37122 14.58594,-10.6875c4.18347,-5.31262 7.91797,-10.28912 11.19531,-14.92584l41.73047,-61.23825c4.63672,-6.44531 8.53906,-12.09769 11.70313,-16.96094c3.28125,-4.86328 8.14453,-7.29297 14.58984,-7.29297c6.55859,0 10.40234,4.07031 11.53516,12.21094c1.12891,8.03125 1.35535,17.19141 0.67578,27.48038c-0.67578,10.17975 -0.78906,18.26178 -0.33984,24.25787c2.26172,16.62109 5.82422,28.32813 10.6875,35.11328c4.86328,6.67181 10.57422,10.00781 17.13281,10.00781c7.80457,0 16.11719,-3.22266 24.9375,-9.66797c8.82031,-6.55859 17.64063,-14.08203 26.46094,-22.5625c8.82031,-8.59375 16.56616,-16.11322 23.23828,-22.55859c6.67188,-6.5625 11.64844,-9.83984 14.92969,-9.83984c2.82422,0 5.37109,0.62109 7.63281,1.86719c2.375,1.12891 3.5625,3.50391 3.5625,7.12109c0,3.73431 -2.82813,8.76563 -8.48462,15.09766c-5.53882,6.22266 -11.53491,12.21484 -17.98022,17.98047c-6.44531,5.76953 -11.08203,10.06641 -13.91016,12.89453c-9.26953,8.82031 -19.33594,16.33984 -30.19141,22.55859c-10.85547,6.21875 -21.65625,9.33203 -32.39844,9.33203c-11.53516,0 -20.58203,-3.11328 -27.14063,-9.33203c-6.44922,-6.21875 -11.19531,-14.07819 -14.25,-23.57819c-2.94153,-9.5 -4.86328,-19.44916 -5.76953,-29.85541c-0.90234,-10.51563 -1.35547,-19.90234 -1.35547,-28.15625c-2.82837,1.80859 -6.21887,5.87885 -10.17578,12.21088c-3.84778,6.22266 -6.95703,11.14069 -9.33203,14.75787c-2.82837,4.63672 -6.7854,11.02734 -11.875,19.16797c-5.08606,8.14453 -10.74219,16.28516 -16.96094,24.42963c-6.21875,8.02734 -12.49609,14.81262 -18.82813,20.35553c-6.22266,5.53906 -12.10156,8.30859 -17.64063,8.30859c-10.63293,0 -17.92578,-3.10938 -21.88293,-9.32813c-3.96082,-6.21875 -6.05078,-13.85156 -6.27722,-22.89844c-0.22656,-9.04681 -0.33984,-17.53131 -0.33984,-25.44537zm270.94922,28.49615c-9.72656,0 -16.56641,-4.86328 -20.52344,-14.586c-3.95703,-9.72644 -5.71094,-21.76953 -5.25781,-36.13281c0.5625,-14.35931 2.42969,-28.72256 5.59766,-43.08585c3.27734,-14.35934 7.34766,-26.40628 12.21094,-36.12888c4.86328,-9.72659 9.83984,-14.58984 14.92969,-14.58984c8.82031,0 14.01953,1.98044 15.60522,5.93744c1.69556,3.95703 1.35571,10.12112 -1.01929,18.48831c-2.26196,8.25778 -4.91821,18.77341 -7.97266,31.55075c-3.05078,12.78128 -4.57813,27.93359 -4.57813,45.46094c1.01563,-0.90234 1.75,-1.58203 2.20313,-2.03516c0.45313,-0.45313 0.90625,-0.90234 1.35938,-1.35547l32.56641,-54.96094c2.82813,-4.63669 6.67188,-10.74219 11.53516,-18.32031c4.86328,-7.68744 10.17969,-14.6445 15.94531,-20.86328c5.76953,-6.33203 11.42188,-9.49997 16.96484,-9.49997c10.74219,0 17.69531,5.48438 20.86328,16.45306c3.27734,10.85947 4.91797,21.82816 4.91797,32.91016c5.08984,-0.90619 11.30859,-5.14447 18.65991,-12.72256c7.46509,-7.69141 14.19165,-14.30472 20.18774,-19.84769c3.27734,-3.7305 6.16016,-6.95309 8.64844,-9.66803c2.60156,-2.82806 5.76953,-5.20309 9.5,-7.12494c4.63672,-2.26169 8.82031,-3.39063 12.55078,-3.39063c4.64063,0 8.53906,1.86325 11.70703,5.59763c3.27734,3.7305 5.14453,10.57031 5.59766,20.52347c0.45313,9.95313 0.22656,21.42966 -0.67969,34.43353c-0.90234,12.89459 -1.97656,25.83987 -3.22266,38.84763c-1.12915,12.89069 -1.69531,24.19922 -1.69531,33.92584c0,21.37103 1.75391,36.35547 5.25781,44.94922c3.50391,8.48431 8.25391,12.7226 14.25,12.7226c6.89844,0 14.64453,-4.57806 23.23828,-13.73828c8.59375,-9.27338 17.13281,-20.18744 25.61304,-32.73822c8.59375,-12.55475 15.94556,-23.91803 22.05103,-34.09766c3.16797,-5.08588 6.27734,-10.17584 9.33203,-15.26563c3.05078,-5.08984 8.25391,-7.63281 15.60547,-7.63281c1.35547,0 2.82813,0.96094 4.41016,2.88287c1.69531,1.80847 2.54297,3.84369 2.54297,6.10541c0,2.82813 -1.41406,6.78516 -4.23828,11.875c-2.71484,5.08984 -5.59766,10.06641 -8.65234,14.92969c-2.94141,4.85938 -5.37109,8.70709 -7.29297,11.53125c-1.80859,3.16797 -3.44922,5.9375 -4.92188,8.31256c-1.35547,2.26166 -3.16406,5.2616 -5.42578,8.99213c-1.80859,2.82806 -3.67578,5.25781 -5.59766,7.29297c-1.80859,2.03516 -3.90234,4.91797 -6.27734,8.65234c-8.82031,13.00391 -19.39453,24.37109 -31.71899,34.09375c-12.2146,9.72656 -24.0896,14.58984 -35.62476,14.58984c-6.44531,0 -12.72266,-2.09381 -18.82813,-6.27734c-5.99219,-4.18359 -10.85571,-11.36328 -14.58594,-21.54297c-6.44922,-17.07416 -9.55859,-35.11328 -9.33203,-54.11328c0.22656,-18.99609 1.69531,-37.54297 4.41016,-55.63669c2.82813,-18.09372 4.24219,-33.86716 4.24219,-47.32813c-4.63672,3.28122 -10.29321,8.65234 -16.96484,16.11716c-6.67188,7.35156 -13.51196,14.19147 -20.52344,20.5235c-6.89844,6.22263 -13.62915,9.332 -20.1875,9.332c-10.62891,0 -17.92212,-5.08984 -21.87891,-15.2695c-3.96094,-10.17581 -5.9375,-20.41019 -5.9375,-30.70316c-7.80469,5.08984 -15.32422,14.13669 -22.5625,27.1445c-7.125,13.00388 -14.30469,26.6875 -21.54297,41.04681c-7.125,14.36334 -14.30469,26.74615 -21.54297,37.1485c-7.12524,10.40625 -14.64453,15.83203 -22.55859,16.28516l-1.35938,0zm0,0" fill="none"/>
  <g id="svg_5" fill="#292a61">
   <g id="svg_6">
    <g id="svg_7">
     <path id="svg_8" d="m292.59637,845.91498c0,-2.78125 0.1134,-7.18359 0.34387,-13.20313c0.22644,-6.02344 0.69141,-12.04297 1.3905,-18.0625c0.69543,-6.02344 1.27356,-9.72656 1.73438,-11.10938c-3.24207,0.45703 -5.09363,1.26563 -5.56238,2.42188c-0.46106,1.16406 -1.61719,3.36719 -3.46875,6.60938c-2.78137,6.01953 -3.82422,12.15625 -3.125,18.40625c0.69531,6.25781 3.59375,11.23828 8.68738,14.9375zm55.57813,-645.46872c0,-13.42578 1.03906,-26.27344 3.125,-38.54688c2.08203,-12.28125 3.125,-24.90625 3.125,-37.87501c0,-5.09375 0.46106,-11.34375 1.39063,-18.75c0.9259,-7.41406 1.625,-14.13281 2.09387,-20.15625c0.91406,-6.48828 1.25769,-11.23828 1.03125,-14.25c-0.23047,-3.00781 0.34753,-5.32031 1.73425,-6.9375c1.39453,-1.625 4.40625,-3.82813 9.03125,-6.60938c3.70703,1.85547 6.83215,3.94531 9.375,6.26563c2.5509,2.3125 3.82825,6.48047 3.82825,12.5c0,22.23047 -0.57825,41.21875 -1.7345,56.96876c-1.15625,15.75 -2.66394,33.8203 -4.51563,54.20311c3.70715,-0.92577 8.45715,-2.66014 14.25012,-5.20311c5.78906,-2.55078 10.76941,-4.52344 14.93738,-5.92188c31.03137,-12.5 64.49219,-24.76953 100.39063,-36.8125c35.89465,-12.05079 70.51965,-21.08595 103.875,-27.10938c7.41406,-1.85156 20.73438,-4.39844 39.95313,-7.64063c19.21875,-3.23828 40.75403,-6.12891 64.60938,-8.67188c23.85156,-2.55078 46.66406,-3.82813 68.4375,-3.82813c23.16406,0 42.7384,2.08594 58.71875,6.25c15.97656,4.16797 23.96887,12.04297 23.96887,23.625c0,12.96876 -4.75012,22.81251 -14.25,29.53124c-9.49231,6.71095 -18.87122,10.52736 -28.14075,11.45314c2.32043,-6.47656 6.03125,-13.07813 11.125,-19.79688c5.09375,-6.71877 8.10168,-13.08595 9.03125,-19.10938c-6.02332,-0.92578 -11.46484,-2.08203 -16.32813,-3.46875c-4.86719,-1.39453 -11.23425,-2.09375 -19.10925,-2.09375c-23.625,0 -44.125,0.23438 -61.50012,0.70313c-17.36719,0.46094 -33.80847,1.61719 -49.32813,3.46875c-15.5116,1.85547 -31.83972,4.40625 -48.98438,7.65626c-17.1366,3.24219 -37.28113,7.63672 -60.43738,13.18748c-3.24219,0.92969 -10.422,3.13283 -21.547,6.60939c-11.11719,3.46875 -24.54675,7.63672 -40.29675,12.49998c-15.74231,4.8672 -32.0625,10.19531 -48.96887,15.98438c-16.90613,5.79298 -32.89063,11.46877 -47.95313,17.03127c-15.05469,5.55469 -27.55847,10.53125 -37.51563,14.9375c-9.96082,4.39844 -15.63281,7.98047 -17.0155,10.75l-22.2345,218.17188c-0.46863,6.02344 -1.28125,12.96875 -2.43738,20.84375c-1.15625,7.875 -1.7345,15.28906 -1.7345,22.23438c5.09387,-0.92578 13.08203,-3.58594 23.96875,-7.98438c10.88293,-4.40625 19.8009,-7.53516 26.75012,-9.39063c8.34363,-2.76953 19.22656,-6.00781 32.65625,-9.71875c13.4375,-3.70703 26.98425,-7.17969 40.6405,-10.42188c13.66418,-3.23828 24.672,-5.32031 33.01563,-6.25c9.71887,-1.39453 17.82043,-2.09375 24.3125,-2.09375c12.03906,0 19.21887,2.32031 21.53125,6.95313c2.32031,4.63672 2.32031,11.58594 0,20.84375c-2.31238,0.46094 -3.93347,0.80859 -4.85938,1.04688c-0.92969,0.23047 -3.0116,0.57422 -6.24988,1.03125c-0.92981,-6.01953 -3.71106,-9.03125 -8.34387,-9.03125c-8.80457,0 -20.3866,1.50781 -34.75,4.51563c-14.35535,3.01172 -29.6366,6.71875 -45.84363,11.125c-16.21094,4.39844 -31.72668,9.02734 -46.547,13.89063c-14.8241,4.86719 -26.86707,9.15234 -36.125,12.85938c-3.25,1.38672 -6.73035,2.77734 -10.43738,4.17188c-3.69922,1.38672 -7.63293,2.30859 -11.797,2.76563l-22.23425,243.18747c5.55066,-0.46875 11.80078,-2.78906 18.75,-6.95313c6.94519,-4.16797 12.96875,-7.17969 18.06238,-9.03125c19,-8.33594 38.8009,-15.39844 59.40625,-21.1875c20.6134,-5.79297 41.34375,-10.30859 62.18762,-13.54688c4.16406,-0.92969 12.50391,-2.20313 25.0155,-3.82813c12.50793,-1.61719 27.67969,-3.35156 45.51575,-5.20313c17.83203,-1.85547 36.70703,-3.36719 56.62488,-4.53125c19.91406,-1.15625 39.36731,-1.73438 58.3595,-1.73438c26.86328,0 49.90613,1.85156 69.125,5.5625c19.22656,3.70703 28.84375,10.65625 28.84375,20.84375c0,4.63281 -0.12109,7.53125 -0.3595,8.6875c-0.23035,1.15625 -0.92188,1.96094 -2.07813,2.42188c-1.15613,0.46875 -2.89063,2.32031 -5.20313,5.5625c-2.3241,-1.84375 -4.0625,-3.8125 -5.21863,-5.90625c-1.15625,-2.08594 -3.47668,-4.16797 -6.95313,-6.25c-3.46887,-2.08594 -10.29688,-3.82031 -20.4845,-5.20313c-15.29285,-2.78125 -36.13672,-4.17188 -62.53113,-4.17188c-31.04297,0 -63.82043,1.39063 -98.32825,4.17188c-34.5,2.78125 -68.3125,7.64453 -101.43738,14.59375c-33.11731,6.94531 -64.03125,16.67188 -92.75012,29.17188c-4.6366,1.85156 -8.46082,3.47266 -11.46863,4.85938c-3.01184,1.39453 -6.60168,3.25 -10.76575,5.5625c-3.71082,1.85156 -7.41785,3.58594 -11.125,5.20313c-3.69922,1.625 -6.71094,3.13281 -9.03125,4.53125c-3.69922,2.3125 -6.24597,6.94141 -7.64063,13.89063c-1.38672,6.94531 -2.1991,14.35938 -2.43738,22.23438c-0.23047,7.875 -0.57422,15.05078 -1.03125,21.53125c-1.38672,15.75 -4.04688,26.63281 -7.98438,32.65625c-3.9375,6.03125 -8.45325,9.04688 -13.547,9.04688c-4.6366,0 -9.49988,-2.32031 -14.59363,-6.95313c-5.09387,-4.63672 -9.26563,-9.96484 -12.51563,-15.98438c-3.24219,-6.02344 -4.8595,-11.11719 -4.8595,-15.28125c0,-13.4375 1.50403,-23.74609 4.51575,-30.92188c3.00769,-7.17969 6.48425,-12.62109 10.42175,-16.32813c3.9375,-3.71094 7.75781,-6.95313 11.46875,-9.73438c3.70715,-2.77344 6.25391,-6.24219 7.64063,-10.40625c0.45715,-1.85547 1.03528,-6.60547 1.73438,-14.25c0.69543,-7.64844 1.39075,-16.21875 2.07825,-25.71875c0.69519,-9.49219 1.27344,-18.28906 1.73438,-26.39063c0.46863,-8.10547 0.703,-13.54688 0.703,-16.32813c0,-5.5625 0.22656,-9.03906 0.6875,-10.42188c0.46887,-1.38672 0.9375,-4.39844 1.40637,-9.03125c0,-3.71094 -0.12122,-7.30469 -0.3595,-10.78125c-0.23035,-3.46875 -0.10938,-7.05859 0.3595,-10.76563l9.03113,-123.67188l-58.37488,29.875c-0.46106,0 -3.35559,1.74219 -8.6875,5.21875c-5.32434,3.46875 -10.297,5.20313 -14.922,5.20313c-4.6366,0 -6.953,-3.00781 -6.953,-9.03125c0,-3.69531 2.89453,-7.86328 8.6875,-12.5c5.78894,-4.63281 12.03894,-8.92188 18.75,-12.85938c6.71875,-3.9375 11.46875,-6.59766 14.25,-7.98438l51.40625,-24.31247c0,-12.05078 0.46094,-23.39844 1.3905,-34.04688c0.9259,-10.65625 2.08606,-21.77344 3.4845,-33.35938l19.453,-194.54689c-4.63672,2.32423 -9.27344,4.64064 -13.90625,6.95314c-4.62488,2.3125 -9.48425,4.39844 -14.57813,6.25l-82.68738,43.07813c-8.80481,5.09375 -17.60547,10.30859 -26.40625,15.64063c-8.80469,5.32422 -17.60162,10.99609 -26.39069,17.01563c-2.32422,1.39844 -4.52734,2.78906 -6.60938,4.17188c-2.08594,1.38672 -4.51563,3.00781 -7.29688,4.85938c-2.3125,1.85547 -4.04688,3.24609 -5.20313,4.17188c-1.15625,0.92969 -3.125,2.32031 -5.90625,4.17188c-1.85156,0.92969 -3.9375,1.85547 -6.25,2.78125c-2.32031,0.92969 -4.64063,1.39063 -6.95313,1.39063c-6.48828,0 -9.73438,-3.47266 -9.73438,-10.42188c0,-4.16406 4.63672,-9.95313 13.90625,-17.35938c9.26172,-7.41406 20.95313,-15.52344 35.07813,-24.32813c14.125,-8.80078 28.711,-17.48438 43.76569,-26.04688c15.0625,-8.57033 28.37891,-16.10156 39.953,-22.59375c11.58203,-6.48828 19.45715,-10.65625 23.625,-12.5l60.45313,-28.5zm0,0"/>
    </g>
   </g>
  </g>
  <g id="svg_9" fill="#292a61">
   <g id="svg_10">
    <g id="svg_11">
     <path id="svg_12" d="m789.31097,588.14935c0,-23.15625 1.39063,-48.16406 4.17188,-75.03125c2.78125,-26.86325 6.48438,-53.49997 11.10938,-79.90622c4.63281,-26.40625 9.72656,-50.25781 15.28125,-71.5625c2.32031,-6.94531 4.64063,-14.70313 6.95313,-23.26563c2.3125,-8.57031 5.32031,-15.98438 9.03125,-22.23438c3.70703,-6.25781 8.57031,-9.39063 14.59375,-9.39063c5.5625,0 9.03516,2.08594 10.42188,6.25c1.38281,4.16797 1.5,9.14844 0.34375,14.9375c-1.15625,5.79297 -2.66406,11.12109 -4.51563,15.98438c-1.85547,4.86719 -3.01172,8.22656 -3.46875,10.07813c-3.71094,13.89844 -7.99609,32.77344 -12.85938,56.625c-4.86719,23.85547 -9.5,49.91406 -13.90625,78.17188c-4.39844,28.24997 -7.75,56.27341 -10.0625,84.06247c-2.3125,27.79297 -2.77734,52.91797 -1.39063,75.375c1.39453,22.46875 5.10156,39.72266 11.125,51.76563c7.875,-4.16797 14.35938,-10.42188 19.45313,-18.76563c5.09375,-8.33594 9.49219,-16.4375 13.20313,-24.3125c10.64453,-20.375 21.0625,-41.91016 31.25,-64.60938c10.19531,-22.69531 20.85156,-44.00391 31.96875,-63.92188c3.70703,-7.41406 7.64453,-11.125 11.8125,-11.125c1.85156,0 3.35938,0.8125 4.51563,2.4375c1.15625,1.625 1.73438,3.36719 1.73438,5.21875c0,1.38672 -1.85547,5.78906 -5.5625,13.20313c-3.69922,7.40625 -7.51563,15.04688 -11.45313,22.92188c-3.9375,7.875 -6.60547,12.96875 -8,15.28125c-4.625,9.73047 -9.83594,21.07813 -15.625,34.04688c-5.79297,12.96875 -11.46875,25.70313 -17.03125,38.20313c-5.55469,12.50781 -10.875,23.16406 -15.96875,31.96875c-2.32422,3.70703 -5.45313,8.6875 -9.39063,14.9375c-3.9375,6.25 -8.22656,11.69141 -12.85938,16.32813c-4.625,4.63281 -9.94922,6.95313 -15.96875,6.95313c-9.26172,0 -16.55859,-4.63672 -21.89063,-13.90625c-5.32422,-9.26172 -9.14844,-20.83984 -11.46875,-34.73438c-2.3125,-13.89844 -3.82031,-28.25781 -4.51563,-43.07813c-0.6875,-14.82031 -1.03125,-27.78906 -1.03125,-38.90625zm0,0"/>
    </g>
   </g>
  </g>
  <g id="svg_13" fill="#292a61">
   <g id="svg_14">
    <g id="svg_15">
     <path id="svg_16" d="m714.95844,331.77438c0,-6.01953 5.55859,-12.39063 16.67188,-19.10938c11.11719,-6.71875 25.125,-13.31641 42.03125,-19.79688c16.90625,-6.48828 34.74219,-12.62891 53.5,-18.42188c18.76172,-5.78906 36.01563,-10.76953 51.76563,-14.9375c15.75,-4.16408 27.5625,-7.40625 35.4375,-9.71875c9.72656,-2.78125 16.5625,-4.39845 20.5,-4.85938c3.9375,-0.46875 6.48438,-1.97266 7.64063,-4.51564c1.15625,-2.55077 2.42578,-7.76561 3.8125,-15.64063c3.70703,-18.98828 7.99219,-32.0703 12.85938,-39.25c4.86328,-7.18748 9.60938,-10.78123 14.23438,-10.78123c3.70703,0 6.83203,1.96873 9.375,5.90625c2.55078,3.93748 3.82813,8.6875 3.82813,14.25c0,4.16797 -0.23438,5.90625 -0.70313,5.21875c-0.46094,-0.69531 -0.45313,0.80469 0.01563,4.5c0,0.92969 0.11328,2.08984 0.34375,3.48438c0.22656,1.38672 0.34375,3.23438 0.34375,5.54688c0,6.02344 -1.15625,9.03125 -3.46875,9.03125c-2.3125,0 -4.63281,0.35156 -6.95313,1.04688c-2.3125,0.69922 -3.46875,4.74998 -3.46875,12.15625c5.5625,0 11.69531,-0.80469 18.40625,-2.42188c6.71875,-1.625 12.625,-2.66406 17.71875,-3.125c20.38287,-3.70703 40.76569,-7.06641 61.14069,-10.07814c20.38281,-3.00781 41.22656,-4.51561 62.53113,-4.51561c11.12512,0 19.2345,2.32031 24.32825,6.95313c5.09375,4.625 6.94141,9.25781 5.54688,13.89061c-1.38672,4.62502 -6.48047,6.9375 -15.28125,6.9375c-0.92969,-3.6953 -1.50781,-5.42967 -1.73438,-5.20311c-0.23047,0.23047 -2.42969,-0.11719 -6.59375,-1.04688c-1.85547,-0.45703 -5.5625,-0.68752 -11.125,-0.68752c-9.73047,0 -22.58594,1.04298 -38.5625,3.125c-15.98047,2.08595 -32.53918,4.51563 -49.67188,7.29689c-17.13678,2.78125 -32.42194,5.44922 -45.85944,8c-13.4375,2.54297 -22.24219,4.27734 -26.40625,5.20313l-13.89063,142.42188c-0.46875,3.25 -0.58984,6.73047 -0.35938,10.4375c0.23828,3.69922 0.35938,7.40234 0.35938,11.10938c0,4.63672 -0.35156,7.64844 -1.04688,9.03125c-0.6875,1.38672 -1.03125,4.625 -1.03125,9.71875c0,10.19922 0.22656,21.89844 0.6875,35.09375c0.45703,13.19922 0.22656,23.50781 -0.6875,30.92188c-0.46875,4.16794 -0.82031,12.39059 -1.04688,24.67184c-0.23047,12.27344 -0.46484,26.51172 -0.70313,42.71875c-0.23047,16.21094 -0.34375,32.53906 -0.34375,48.98438c0,16.44531 0,31.38281 0,44.8125c0,13.4375 0.23438,23.16406 0.70313,29.1875c0,5.09375 0.57813,12.84766 1.73438,23.26563c1.15625,10.42578 1.38281,19.80469 0.6875,28.14063c-0.6875,8.34375 -4.04688,12.51563 -10.07813,12.51563c-8.79297,0 -14.11719,-4.86719 -15.96875,-14.59375c-1.85547,-9.73047 -2.78125,-18.76172 -2.78125,-27.09375c-1.39844,-16.67969 -2.21094,-36.13672 -2.4375,-58.375c-0.23047,-22.22656 -0.23047,-44.45703 0,-66.6875c0.22656,-22.23828 0.34375,-41.69531 0.34375,-58.375l2.09375,-32.65622c0,-6.47656 0,-16.42969 0,-29.85938c0,-13.4375 0.22656,-27.67969 0.6875,-42.73438c0.46875,-15.0625 0.92969,-28.84375 1.39063,-41.34375c0.46875,-12.50781 1.16406,-21.3125 2.09375,-26.40625c0.92578,-4.63281 1.50391,-10.19141 1.73438,-16.67188c0.22656,-6.48828 0.57813,-12.04688 1.04688,-16.67188l6.25,-64.625c-1.85547,0.46875 -5.91406,1.40234 -12.17188,2.79688c-6.25,1.38672 -11.22656,2.53906 -14.92188,3.45313c-22.69531,5.5625 -44.35156,11.47656 -64.96875,17.73438c-20.61328,6.25 -41.80469,13.54297 -63.57813,21.875c-4.16406,1.85547 -7.98438,3.82422 -11.45313,5.90625c-3.47656,2.08594 -7.30078,4.05469 -11.46875,5.90625c-5.5625,2.3125 -9.14844,3.93359 -10.76563,4.85938c-1.625,0.92969 -2.4375,2.08984 -2.4375,3.48438c0,1.38672 -1.15625,4.39844 -3.46875,9.03125c-1.85156,0.46094 -3.70703,0.80859 -5.5625,1.04688c-1.85156,0.23047 -3.9375,0.34375 -6.25,0.34375c-3.70703,0 -7.06641,-0.8125 -10.07813,-2.4375c-3.00781,-1.625 -4.51563,-4.75 -4.51563,-9.375zm0,0"/>
    </g>
   </g>
  </g>
  <g id="svg_17" fill="#292a61">
   <g id="svg_18">
    <g id="svg_19">
     <path id="svg_20" d="m1022.73456,515.88373c8.80084,-4.62497 18.53131,-10.98825 29.18756,-19.09372c10.65625,-8.11328 16.44531,-17.72656 17.375,-28.84375c-6.02344,0.92969 -12.39063,4.17188 -19.10938,9.73438c-6.71875,5.55469 -12.51172,11.80469 -17.37512,18.75c-4.86707,6.94922 -8.22644,13.43359 -10.07806,19.45309zm-31.26563,16.6875c0,-11.58203 3.82031,-24.08591 11.46875,-37.51559c7.64453,-13.4375 17.14063,-24.89844 28.48444,-34.39063c11.35156,-9.5 22.58594,-14.25 33.70313,-14.25c15.28125,0 23.26953,5.79297 23.96875,17.375c0.69519,11.57422 -4.28137,24.07813 -14.9375,37.51563c-5.5625,6.02344 -13.90234,12.96872 -25.01563,20.84372c-11.11719,7.875 -22,12.27734 -32.65631,13.20313c0,7.40625 0.22656,14.00781 0.6875,19.79688c0.46875,5.79297 3.71094,11.69922 9.73444,17.71875c6.01953,6.02344 13.66406,9.03125 22.9375,9.03125c12.03894,0 24.54688,-3.82031 37.51563,-11.46875c12.96863,-7.64453 22.92578,-14.01563 29.87488,-19.10938c2.78137,-2.3125 4.97668,-4.16016 6.59387,-5.54688c1.62488,-1.39453 3.59375,-3.01953 5.90625,-4.875c9.72644,-7.40625 15.86328,-12.84375 18.40625,-16.3125c2.55078,-3.47656 4.75391,-5.79688 6.60938,-6.95313c1.85156,-1.16406 6.25391,-1.75 13.20313,-1.75c0.92578,5.10547 1.27332,8.58594 1.04688,10.4375c-0.23047,1.84375 -1.96875,4.62109 -5.21887,8.32813c-8.33582,8.33594 -18.87097,17.82813 -31.60925,28.48438c-12.74219,10.65625 -26.40625,19.92188 -41,27.79688c-14.58594,7.875 -29.05859,11.8125 -43.42188,11.8125c-7.40625,0 -14.46875,-1.26953 -21.18762,-3.8125c-6.71869,-2.55078 -13.08978,-6.83594 -19.10931,-12.85938c-8.33594,-8.34375 -13.08594,-16.91406 -14.25,-25.71875c-1.15625,-8.80078 -1.73438,-18.0625 -1.73438,-27.78125zm0,0"/>
    </g>
   </g>
  </g>
  <g id="svg_21" fill="#292a61">
   <g id="svg_22">
    <g id="svg_23">
     <path id="svg_24" d="m1151.27222,638.8681c-4.63672,0 -7.41797,-2.89453 -8.34375,-8.6875c-0.92969,-5.78906 -1.16418,-11.92578 -0.70313,-18.40625c0.46875,-6.48828 0.70313,-10.42578 0.70313,-11.8125c-0.46875,-8.33203 -0.58997,-16.78516 -0.35938,-25.35938c0.23828,-8.57031 0.125,-17.25781 -0.34375,-26.0625c0,-3.23828 0.11316,-9.375 0.34375,-18.40625c0.23828,-9.03125 0.9375,-18.64059 2.09375,-28.82809c1.15625,-10.19531 2.89063,-19 5.20313,-26.40625c2.32031,-7.41406 5.33582,-11.125 9.04688,-11.125c9.25769,0 14.00378,3.01563 14.23438,9.04688c0.22656,6.02344 -0.11719,13.89063 -1.03125,23.60938c-0.46875,3.25 -0.70325,6.84375 -0.70325,10.78125c0,3.9375 0,7.75778 0,11.45309c0,4.63672 -0.23425,7.65234 -0.703,9.04688c-0.46094,1.38672 -0.6875,4.39063 -0.6875,9.01563c5.09375,-3.69531 9.72266,-7.97656 13.89063,-12.84375c4.17578,-4.86328 11.58594,-7.29688 22.23438,-7.29688c3.25,0 7.53516,-0.11328 12.85938,-0.34375c5.32031,-0.23828 11,-0.35938 17.03125,-0.35938c10.1875,0 19.67969,0.58594 28.48438,1.75c8.80078,1.15625 13.203,4.04688 13.203,8.67188c0,4.63672 -2.43347,7.65234 -7.29675,9.04688c-4.86731,1.38672 -10.77344,2.07813 -17.71875,2.07813c-4.63672,0 -9.38672,-0.11328 -14.25,-0.34375c-4.86719,-0.23828 -9.14844,-0.35938 -12.84375,-0.35938c-12.98047,0 -21.66797,0.69922 -26.0625,2.09375c-4.39844,1.38672 -9.375,6.71484 -14.9375,15.98438c-3.24219,6.02344 -6.36719,12.50781 -9.375,19.45313c-3.01172,6.94922 -5.21484,14.58984 -6.60938,22.92188c-1.38672,6.02344 -1.96497,12.27734 -1.73438,18.76563c0.22656,6.48047 -0.46875,11.92188 -2.09375,16.32813c-1.61719,4.39844 -6.125,6.59375 -13.53125,6.59375zm0,0"/>
    </g>
   </g>
  </g>
  <g id="svg_25" fill="#292a61">
   <g id="svg_26">
    <g id="svg_27">
     <path id="svg_28" d="m1274.23193,605.52435c-8.80469,0 -14.48059,-5.32813 -17.03125,-15.98438c-2.53906,-10.65625 -2.88281,-23.97266 -1.03125,-39.95313c1.85156,-15.97656 5.21094,-31.95703 10.07813,-47.93747c4.86316,-15.97656 10.30469,-29.29688 16.32813,-39.95313c6.01953,-10.65625 11.57813,-15.98438 16.67188,-15.98438c7.875,0 11.57813,3.59375 11.10938,10.78125c-0.46094,7.17969 -2.77734,16.67188 -6.95313,28.48438c-4.16797,11.8125 -8.33594,24.78125 -12.5,38.90622c-4.16809,14.125 -6.25,27.90625 -6.25,41.34375l33.34375,-50.71875c1.39453,-2.78122 4.40625,-7.6445 9.03125,-14.59372c4.63281,-6.94531 9.84753,-13.42969 15.64063,-19.45313c5.78906,-6.01953 11.46875,-9.03125 17.03125,-9.03125c5.55078,0 9.94531,3.70313 13.1875,11.10938l4.17188,38.90622c0,4.16797 0.22656,10.65234 0.6875,19.45313c0.46875,8.80469 1.50781,17.71875 3.12488,26.75c1.62512,9.03125 4.28918,16.79297 8,23.28125c3.70715,6.48047 8.80078,9.71875 15.28137,9.71875c6.94531,0 14.24219,-4.16406 21.89063,-12.5c7.64441,-8.33203 15.05469,-17.94141 22.23438,-28.82813c7.17578,-10.88281 13.66016,-20.49219 19.45313,-28.82813c5.78894,-8.34375 10.30469,-12.51563 13.54688,-12.51563c6.94531,0 10.1875,2.66797 9.71875,8c-0.46094,5.32422 -2.77344,11.46094 -6.9375,18.40625c-4.16797,6.94922 -8.45313,13.43359 -12.85938,19.45313c-4.39844,6.02344 -7.05859,9.72656 -7.98438,11.10938c-3.24219,4.16797 -7.64063,9.49609 -13.20313,15.98438c-5.55469,6.48047 -11.34375,12.5 -17.375,18.0625c-6.02344,5.5625 -11.80859,9.03906 -17.35938,10.42188c-4.63672,1.38672 -9.03906,2.07813 -13.20313,2.07813c-10.65625,0 -19.1095,-3.92969 -25.3595,-11.79688c-6.24988,-7.875 -11,-16.44531 -14.24988,-25.71875c-4.62512,-13.89453 -7.17188,-26.28516 -7.64063,-37.17188c-0.46094,-10.88281 -0.46094,-20.14453 0,-27.78125c0.46875,-7.6445 -0.46094,-13.55075 -2.78125,-17.71872c-5.55469,3.69922 -11.46094,11.10934 -17.71875,22.23434c-6.25,11.11719 -12.7345,23.04297 -19.45325,35.78125c-6.71082,12.74219 -13.42175,23.625 -20.1405,32.65625c-6.71875,9.03125 -13.55469,13.54688 -20.5,13.54688zm0,0"/>
    </g>
   </g>
  </g>
  <g id="svg_29" fill="#292a61">
   <g id="svg_30">
    <g id="svg_31">
     <path id="svg_32" d="m1484.72888,750.03998c0,5.09375 0.34778,12.96094 1.04688,23.60938c0.69531,10.65625 2.08606,21.89063 4.172,33.70313c2.08203,11.8125 5.09375,22.11719 9.03125,30.92188c3.9375,8.80078 8.91406,13.89453 14.9375,15.28125c5.09375,-3.24219 10.07031,-9.83984 14.9375,-19.79688c4.86328,-9.96094 9.03125,-20.73047 12.5,-32.3125c3.47656,-11.57422 5.21863,-21.53125 5.21863,-29.875l0,-26.39063c0,-10.65625 -3.24597,-21.19922 -9.73425,-31.625c-6.48047,-10.41797 -14.46875,-19.33594 -23.96875,-26.75c-9.49231,-7.40625 -18.87109,-11.10938 -28.14075,-11.10938l0,74.34375zm-111.15625,-71.5625c0,-6.02344 4.05481,-11 12.15625,-14.9375c8.10559,-3.9375 17.25793,-7.07031 27.45325,-9.39063c10.1875,-2.3125 17.82813,-3.69922 22.92175,-4.15625c7.40637,-0.92969 11.922,-1.51172 13.547,-1.75c1.625,-0.23047 2.66785,-4.28125 3.12488,-12.15625c0.46106,-11.11328 2.19934,-25.125 5.21887,-42.03125c3.01172,-16.90625 6.828,-34.96875 11.45313,-54.1875c4.63281,-19.22656 9.61328,-38.22263 14.9375,-56.98434c5.33203,-18.75781 10.89063,-35.66406 16.67188,-50.71875c5.78906,-15.05078 11.46863,-26.28125 17.03125,-33.6875c6.01953,-7.41406 12.27344,-11.125 18.76563,-11.125c3.23828,0 6.01563,1.27734 8.32813,3.82813c2.3125,2.54297 3.46875,6.82422 3.46875,12.84375c0,8.34375 -0.46484,13.32813 -1.39063,14.95313c-0.91797,1.61719 -2.30469,2.65625 -4.15637,3.125c-1.85535,0.46094 -4.17175,2.65625 -6.953,6.59375c-2.78125,3.9375 -6.02734,12.62109 -9.73438,26.04688c-4.625,16.21875 -8.32813,29.30859 -11.10938,39.26563c-2.78137,9.96094 -5.44922,20.03122 -8,30.21872c-2.54297,10.1875 -5.66797,24.32031 -9.375,42.39063c-1.38672,7.40625 -2.89063,17.13281 -4.51563,29.17188c-1.61719,12.04297 -2.88672,22.23438 -3.8125,30.57813c2.78125,-0.92578 7.64453,-3.70703 14.59375,-8.34375c6.94531,-4.63281 14.47266,-10.07813 22.578,-16.32813c8.10168,-6.25 15.8595,-12.26953 23.26575,-18.0625c7.41406,-5.78906 12.97656,-10.30469 16.68738,-13.54688l50.71887,-47.9375c3.23816,-2.32031 6.47656,-3.48438 9.71875,-3.48438c5.09375,0 7.64063,2.78125 7.64063,8.34375c0,4.63672 -3.35938,10.54297 -10.07825,17.71875c-6.71082,7.17969 -14,14.24219 -21.87488,21.1875c-7.875,6.94922 -13.66797,12.04297 -17.37512,15.28125l-93.79688,72.95313c26.8634,6.01953 46.42969,18.64063 58.70325,37.85938c12.28125,19.22656 18.42188,41.46094 18.42188,66.70313c0,25.25 -4.86719,50.61328 -14.59375,76.09375c-3.24219,9.72656 -8.45313,19.80078 -15.64075,30.21875c-7.17957,10.42578 -17.0155,15.64063 -29.5155,15.64063c-10.65625,0 -19.46094,-5.10156 -26.40625,-15.29688c-6.94922,-10.1875 -12.625,-23.04297 -17.03125,-38.5625c-4.39465,-15.51172 -7.75,-31.49219 -10.0625,-47.9375c-2.3125,-16.4375 -4.04688,-31.49219 -5.20313,-45.15625c-1.16406,-13.66797 -1.97668,-23.28125 -2.4375,-28.84375c-0.46875,-4.16797 -0.23828,-8.57031 0.6875,-13.20313c0.92969,-4.625 1.39063,-9.94922 1.39063,-15.96875c-7.875,1.85156 -16.78906,5.55469 -26.75,11.10938c-9.95703,5.5625 -21.64844,8.34375 -35.07813,8.34375c-8.34387,0 -12.85938,-1.625 -13.54688,-4.875c-0.69531,-3.24219 -1.047,-7.17188 -1.047,-11.79688zm0,0"/>
    </g>
   </g>
  </g>
  <g id="svg_33" fill="#292a61">
   <g id="svg_34">
    <g id="svg_35">
     <path id="svg_36" d="m1635.48853,625.66498c6.94531,-1.85156 13.20313,-7.98828 18.76563,-18.40625c5.5625,-10.42578 9.5,-22.35156 11.8125,-35.78125c2.3125,-13.4375 2.89063,-25.82813 1.73438,-37.17188c-1.15625,-11.35156 -4.74609,-19.11328 -10.76563,-23.28122c-1.39844,5.09372 -3.94922,12.39059 -7.65625,21.89059c-3.69922,9.49219 -7.28906,19.91406 -10.76563,31.26563c-3.46887,11.34375 -5.78125,22.46094 -6.9375,33.34375c-1.15625,10.88672 0.11316,20.26563 3.8125,28.14063zm-34.73438,-23.625c0,-6.01953 1.26953,-14.9375 3.8125,-26.75c2.55078,-11.8125 6.14063,-24.54688 10.76563,-38.20313c4.63281,-13.66406 9.84766,-26.63278 15.64063,-38.90622c5.78894,-12.28125 12.04688,-22.35938 18.76563,-30.23438c6.71875,-7.875 13.55078,-11.8125 20.5,-11.8125c4.625,0 7.86328,2.08984 9.71875,6.26563c1.85156,4.16797 2.31641,7.64063 1.39063,10.42188c-0.92969,2.3125 -2.66797,4.63281 -5.21875,6.95313c-2.54297,2.3125 -4.74219,4.85547 -6.59375,7.625c0.92566,3.25 3.24219,6.84375 6.95313,10.78125c3.70703,3.9375 7.41016,9.15234 11.10938,15.64059c3.70703,6.48047 6.14063,15.27734 7.29688,26.39063c1.15625,11.11719 -0.11719,25.70313 -3.8125,43.76563c-5.09375,24.09375 -13.20313,42.16406 -24.32813,54.20313c-11.11719,12.03906 -22,18.0625 -32.65625,18.0625c-8.79297,0 -16.54688,-4.51563 -23.26563,-13.54688c-6.71875,-9.03125 -10.07813,-22.58203 -10.07813,-40.65625zm0,0"/>
    </g>
   </g>
  </g>
  <g id="svg_37" fill="#292a61">
   <g id="svg_38">
    <g id="svg_39">
     <path id="svg_40" d="m1732.76099,638.8681c-4.63672,0 -7.41797,-2.89453 -8.34375,-8.6875c-0.92969,-5.78906 -1.16418,-11.92578 -0.70313,-18.40625c0.46875,-6.48828 0.70313,-10.42578 0.70313,-11.8125c-0.46875,-8.33203 -0.58984,-16.78516 -0.35938,-25.35938c0.23828,-8.57031 0.125,-17.25781 -0.34375,-26.0625c0,-3.23828 0.11328,-9.375 0.34375,-18.40625c0.23828,-9.03125 0.9375,-18.64059 2.09363,-28.82809c1.15637,-10.19531 2.89075,-19 5.20325,-26.40625c2.32031,-7.41406 5.33594,-11.125 9.04688,-11.125c9.25781,0 14.00391,3.01563 14.23438,9.04688c0.22656,6.02344 -0.11719,13.89063 -1.03125,23.60938c-0.46875,3.25 -0.70313,6.84375 -0.70313,10.78125c0,3.9375 0,7.75778 0,11.45309c0,4.63672 -0.23438,7.65234 -0.70313,9.04688c-0.46094,1.38672 -0.6875,4.39063 -0.6875,9.01563c5.09375,-3.69531 9.72266,-7.97656 13.89063,-12.84375c4.17578,-4.86328 11.58594,-7.29688 22.23438,-7.29688c3.25,0 7.53516,-0.11328 12.85938,-0.34375c5.32031,-0.23828 11,-0.35938 17.03125,-0.35938c10.1875,0 19.67969,0.58594 28.48438,1.75c8.80078,1.15625 13.203,4.04688 13.203,8.67188c0,4.63672 -2.43347,7.65234 -7.29675,9.04688c-4.86719,1.38672 -10.77344,2.07813 -17.71875,2.07813c-4.63672,0 -9.38672,-0.11328 -14.25,-0.34375c-4.86719,-0.23828 -9.14844,-0.35938 -12.84375,-0.35938c-12.98047,0 -21.66797,0.69922 -26.0625,2.09375c-4.39844,1.38672 -9.375,6.71484 -14.9375,15.98438c-3.24219,6.02344 -6.36719,12.50781 -9.37512,19.45313c-3.0116,6.94922 -5.21472,14.58984 -6.60925,22.92188c-1.38672,6.02344 -1.96484,12.27734 -1.73438,18.76563c0.22656,6.48047 -0.46875,11.92188 -2.09375,16.32813c-1.61719,4.39844 -6.125,6.59375 -13.53125,6.59375zm0,0"/>
    </g>
   </g>
  </g>
  <g id="svg_41" fill="#292a61">
   <g id="svg_42">
    <g id="svg_43">
     <path id="svg_44" d="m1836.95483,556.88373c0,-10.1875 1.50391,-21.53125 4.5155,-34.03125c3.01965,-12.50778 6.95715,-24.67184 11.81262,-36.48434c4.86328,-11.8125 10.078,-21.42578 15.64063,-28.84375c5.09375,-5.55078 10.18738,-8.32813 15.28125,-8.32813c4.16406,0 8.33594,1.15625 12.5155,3.46875c0.45715,2.3125 1.03125,3.93359 1.71875,4.85938c0.69543,0.92969 1.047,3.01172 1.047,6.25c0,0.46875 -2.08606,4.875 -6.25,13.21875c-4.16797,8.33594 -8.68359,18.75781 -13.54688,31.26563c-4.86719,12.49997 -8.80469,25.69919 -11.81262,39.59372c-3.0116,13.89844 -3.125,26.63672 -0.34363,38.21875c5.5625,-1.85156 10.42578,-5.44141 14.59375,-10.76563c4.16406,-5.33203 7.86719,-10.31641 11.10938,-14.95313l41.6875,-61.14059c4.63281,-6.47656 8.57031,-12.14844 11.8125,-17.01563c3.25,-4.86328 8.11328,-7.29688 14.59375,-7.29688c6.48828,0 10.3125,4.05469 11.46875,12.15625c1.15625,8.10547 1.38281,17.25781 0.6875,27.45309c-0.6875,10.1875 -0.80469,18.29297 -0.34375,24.3125c2.3125,16.67969 5.89844,28.375 10.76563,35.09375c4.86328,6.71094 10.53894,10.0625 17.03125,10.0625c7.875,0 16.20703,-3.23828 25,-9.71875c8.80078,-6.48828 17.60156,-14.01563 26.40625,-22.57813c8.80078,-8.57031 16.5625,-16.09766 23.28125,-22.57813c6.71875,-6.48828 11.69531,-9.73438 14.9375,-9.73438c2.78125,0 5.32813,0.57813 7.64063,1.73438c2.3125,1.15625 3.46875,3.58984 3.46875,7.29688c0,3.71094 -2.78125,8.6875 -8.34375,14.9375c-5.55469,6.25 -11.57422,12.27344 -18.0625,18.0625c-6.48047,5.79297 -11.10938,10.07813 -13.89063,12.85938c-9.26172,8.80469 -19.33594,16.32813 -30.21875,22.57813c-10.88684,6.25 -21.65637,9.375 -32.3125,9.375c-11.57434,0 -20.60547,-3.125 -27.09387,-9.375c-6.48047,-6.25 -11.23035,-14.125 -14.25,-23.625c-3.0116,-9.5 -4.98035,-19.45703 -5.90613,-29.875c-0.91797,-10.42578 -1.375,-19.80469 -1.375,-28.14063c-2.78137,1.85547 -6.14063,5.90625 -10.07813,12.15625c-3.9375,6.25 -7.0625,11.23047 -9.375,14.9375c-2.78125,4.63672 -6.72656,11.00781 -11.82813,19.10938c-5.09375,8.10547 -10.76563,16.21484 -17.01563,24.32813c-6.25,8.10547 -12.50793,14.9375 -18.76563,20.5c-6.25,5.55469 -12.15234,8.32813 -17.70313,8.32813c-10.65625,0 -17.95325,-3.125 -21.89063,-9.375c-3.93762,-6.25781 -6.02734,-13.90625 -6.26575,-22.9375c-0.23035,-9.03125 -0.34363,-17.48438 -0.34363,-25.35938zm0,0"/>
    </g>
   </g>
  </g>
  <g id="svg_45" fill="#292a61">
   <g id="svg_46">
    <g id="svg_47">
     <path id="svg_48" d="m2107.91406,585.3681c-9.73047,0 -16.5625,-4.85938 -20.5,-14.57813c-3.9375,-9.72656 -5.67969,-21.76953 -5.21875,-36.125c0.46875,-14.36328 2.32031,-28.72263 5.5625,-43.07809c3.23828,-14.36328 7.28906,-26.41016 12.15625,-36.14063c4.86328,-9.72656 9.84375,-14.59375 14.9375,-14.59375c8.80078,0 14.01563,1.96875 15.64063,5.90625c1.625,3.9375 1.27344,10.07813 -1.04688,18.42188c-2.3125,8.33594 -4.97656,18.87109 -7.98438,31.60938c-3.01172,12.73047 -4.51563,27.89841 -4.51563,45.49997c0.92578,-0.92578 1.61719,-1.61719 2.07813,-2.07813c0.46875,-0.46875 0.92969,-0.92969 1.39063,-1.39063l32.65625,-54.89059c2.78125,-4.63281 6.60156,-10.76953 11.46875,-18.40625c4.86328,-7.64453 10.1875,-14.59375 15.96875,-20.84375c5.78906,-6.25781 11.46875,-9.39063 17.03125,-9.39063c10.65625,0 17.60156,5.44531 20.84375,16.32813c3.23828,10.88672 4.85938,21.88672 4.85938,33c5.09375,-0.91406 11.34375,-5.19531 18.75,-12.84375c7.41406,-7.64453 14.13281,-14.24219 20.15625,-19.79688c3.25,-3.70703 6.14453,-6.95313 8.6875,-9.73438c2.55078,-2.78125 5.67969,-5.09766 9.39063,-6.95313c4.625,-2.3125 8.78906,-3.46875 12.5,-3.46875c4.63281,0 8.57031,1.85547 11.8125,5.5625c3.23828,3.69922 5.08594,10.53125 5.54688,20.5c0.46875,9.96094 0.23828,21.42188 -0.6875,34.39063c-0.92969,12.96875 -1.96875,25.93747 -3.125,38.90622c-1.15625,12.96875 -1.73438,24.32031 -1.73438,34.04688c0,21.30469 1.73438,36.24219 5.20313,44.8125c3.47656,8.5625 8.22656,12.84375 14.25,12.84375c6.94531,0 14.70313,-4.62891 23.26563,-13.89063c8.57031,-9.25781 17.14453,-20.14453 25.71875,-32.65625c8.57031,-12.50781 15.86719,-23.85938 21.89063,-34.04688c3.23828,-5.09375 6.36328,-10.1875 9.375,-15.28125c3.00781,-5.09375 8.21875,-7.64063 15.625,-7.64063c1.39453,0 2.89844,0.92969 4.51563,2.78125c1.625,1.85547 2.4375,3.9375 2.4375,6.25c0,2.78125 -1.39063,6.71875 -4.17188,11.8125c-2.78125,5.09375 -5.67969,10.07422 -8.6875,14.9375c-3.01172,4.86719 -5.4375,8.6875 -7.28125,11.46875c-1.85547,3.24219 -3.48047,6.02344 -4.875,8.34375c-1.38672,2.3125 -3.23438,5.32031 -5.54688,9.01563c-1.85547,2.78125 -3.71094,5.21484 -5.5625,7.29688c-1.85547,2.08594 -3.9375,4.98047 -6.25,8.6875c-8.80469,12.96875 -19.34375,24.32031 -31.625,34.04688c-12.27344,9.72656 -24.19922,14.59375 -35.78125,14.59375c-6.48047,0 -12.73047,-2.08984 -18.75,-6.26563c-6.02344,-4.16406 -10.88672,-11.34375 -14.59375,-21.53125c-6.49219,-17.13281 -9.62109,-35.19531 -9.39063,-54.1875c0.23828,-19 1.74219,-37.53125 4.51563,-55.59372c2.78125,-18.0625 4.17188,-33.8125 4.17188,-47.25c-4.625,3.25 -10.29688,8.58594 -17.01563,16c-6.71875,7.40625 -13.55469,14.23438 -20.5,20.48438c-6.94922,6.25 -13.66406,9.375 -20.14063,9.375c-10.65625,0 -17.95313,-5.09375 -21.89063,-15.28125c-3.9375,-10.1875 -5.90625,-20.37891 -5.90625,-30.57813c-7.875,5.10547 -15.40234,14.14063 -22.57813,27.10938c-7.17969,12.96875 -14.35938,26.63669 -21.54688,40.99997c-7.17969,14.35547 -14.35547,26.74609 -21.53125,37.17188c-7.17969,10.41797 -14.70313,15.85547 -22.57813,16.3125l-1.39063,0zm0,0"/>
    </g>
   </g>
  </g>
  <g id="svg_49" fill="#292a61">
   <g id="svg_50">
    <g id="svg_51">
     <path id="svg_52" d="m661.55487,963.32013c0,-7.47656 -1.30469,-14.10938 -3.90625,-19.89063c-2.60547,-5.78125 -6.36719,-10.32031 -11.28125,-13.625c-4.90625,-3.30078 -10.79688,-4.95313 -17.67188,-4.95313c-6.86719,0 -12.75781,1.63281 -17.67188,4.89063c-4.90625,3.26172 -8.66797,7.76172 -11.28125,13.5c-2.60547,5.73047 -3.90625,12.33594 -3.90625,19.8125c0,7.38672 1.30078,14.01563 3.90625,19.89063c2.61328,5.86719 6.375,10.47656 11.28125,13.82813c4.91406,3.34375 10.80469,5.01563 17.67188,5.01563c6.875,0 12.76563,-1.64844 17.67188,-4.95313c4.91406,-3.3125 8.67578,-7.87891 11.28125,-13.70313c2.60156,-5.82031 3.90625,-12.42578 3.90625,-19.8125zm13.17188,0c0,4.08594 -0.48047,8.40625 -1.4375,12.96875c-0.94922,4.5625 -2.49219,9.02344 -4.625,13.375c-2.125,4.34375 -4.94922,8.29688 -8.46875,11.85938c-3.52344,3.5625 -7.89063,6.39063 -13.10938,8.48438c-5.21875,2.08203 -11.35156,3.125 -18.39063,3.125c-7.04297,0 -13.17188,-1.04297 -18.39063,-3.125c-5.21094,-2.09375 -9.57422,-4.92188 -13.09375,-8.48438c-3.52344,-3.5625 -6.35156,-7.51563 -8.48438,-11.85938c-2.125,-4.35156 -3.66797,-8.8125 -4.625,-13.375c-0.94922,-4.5625 -1.42188,-8.88281 -1.42188,-12.96875c0,-4.08203 0.47266,-8.40625 1.42188,-12.96875c0.95703,-4.57031 2.5,-9.03125 4.625,-13.375c2.13281,-4.34375 4.96094,-8.29688 8.48438,-11.85938c3.51953,-3.5625 7.88281,-6.38281 13.09375,-8.46875c5.21875,-2.09375 11.34766,-3.14063 18.39063,-3.14063c7.03906,0 13.17188,1.04688 18.39063,3.14063c5.21875,2.08594 9.58594,4.90625 13.10938,8.46875c3.51953,3.5625 6.34375,7.51563 8.46875,11.85938c2.13281,4.34375 3.67578,8.80469 4.625,13.375c0.95703,4.5625 1.4375,8.88672 1.4375,12.96875zm0,0"/>
    </g>
   </g>
  </g>
  <g id="svg_53" fill="#292a61">
   <g id="svg_54">
    <g id="svg_55">
     <path id="svg_56" d="m807.32648,926.94513l0,29.0625l23.07813,0c6.17578,0 11.00391,-1.08203 14.48438,-3.25c3.47656,-2.17578 5.21875,-6.17578 5.21875,-12c0,-4.34375 -1.48047,-7.72656 -4.4375,-10.15625c-2.96094,-2.4375 -8,-3.65625 -15.125,-3.65625l-23.21875,0zm-12.76563,83.70313l0,-94.65625l41.59375,0c5.90625,0 10.83203,1.08984 14.78125,3.26563c3.95703,2.16797 6.9375,5.05469 8.9375,8.65625c2,3.60547 3,7.58594 3,11.9375c0,2.08594 -0.32813,4.34375 -0.98438,6.78125c-0.64844,2.42969 -1.88281,4.79688 -3.70313,7.10938c-1.82422,2.30469 -4.47656,4.27734 -7.95313,5.92188c1.5625,0.61719 3.32031,1.40234 5.28125,2.35938c1.95703,0.94922 3.84766,2.27344 5.67188,3.96875c1.82031,1.69922 3.31641,3.875 4.48438,6.53125c1.17578,2.64844 1.76563,6.01172 1.76563,10.09375c0,5.04297 -1.21875,9.69531 -3.65625,13.95313c-2.42969,4.26172 -6.03125,7.67188 -10.8125,10.23438c-4.78125,2.5625 -10.69531,3.84375 -17.73438,3.84375l-40.67188,0zm12.76563,-44.20313l0,33.25l27.25,0c6.69531,0 11.71875,-1.5625 15.0625,-4.6875c3.35156,-3.13281 5.03125,-7.35156 5.03125,-12.65625c0,-4.42578 -1.13281,-7.76953 -3.39063,-10.03125c-2.26172,-2.25781 -5.08984,-3.80078 -8.48438,-4.625c-3.38672,-0.83203 -6.82031,-1.25 -10.29688,-1.25l-25.17188,0zm0,0"/>
    </g>
   </g>
  </g>
  <g id="svg_57" fill="#292a61">
   <g id="svg_58">
    <g id="svg_59">
     <path id="svg_60" d="m1057.15576,999.3045l0,11.34375l-69.87494,0l0,-94.65625l68.96869,0l0,11.34375l-56.20306,0l0,27.76563l51.76556,0l0,11.34375l-51.76556,0l0,32.85938l57.10931,0zm0,0"/>
    </g>
   </g>
  </g>
  <g id="svg_61" fill="#292a61">
   <g id="svg_62">
    <g id="svg_63">
     <path id="svg_64" d="m1190.55078,970.10138l0,40.54688l-12.76575,0l0,-94.65625l43.672,0c3.91394,0 7.71863,0.39063 11.40625,1.17188c3.69531,0.78125 7.01953,2.13281 9.96863,4.04688c2.95715,1.90625 5.32825,4.51172 7.1095,7.8125c1.78906,3.30469 2.6875,7.43359 2.6875,12.39063c0,4.60547 -0.67969,8.36719 -2.03125,11.28125c-1.34375,2.90625 -3.03906,5.23047 -5.07825,6.96875c-2.04285,1.74219 -4.06238,3.21875 -6.06238,4.4375c1.03906,0.69922 2.23438,1.41797 3.57813,2.15625c1.35156,0.73047 2.66016,1.66406 3.92175,2.79688c1.25793,1.125 2.28137,2.71484 3.0625,4.76563c0.78137,2.04297 1.172,4.71484 1.172,8.01563l0,17.20313c0,2.61719 0.36719,4.55469 1.10938,5.8125c0.73816,1.26172 2.0625,2.45313 3.96875,3.57813l0,2.21875l-15.64063,0c-0.4375,-1.47656 -0.80859,-3.36719 -1.1095,-5.67188c-0.30457,-2.30078 -0.54285,-4.66406 -0.71863,-7.09375c-0.17969,-2.4375 -0.28918,-4.65625 -0.32813,-6.65625c-0.04297,-2 -0.0625,-3.4375 -0.0625,-4.3125c0,-2.60156 -0.35156,-5.1875 -1.04688,-7.75c-0.69922,-2.5625 -2.24609,-4.71094 -4.64075,-6.45313c-2.3866,-1.73828 -6.14063,-2.60938 -11.2655,-2.60938l-30.90625,0zm0,-43.15625l0,32.20313l29.60938,0c3.125,0 6.16406,-0.39063 9.125,-1.17188c2.95703,-0.78125 5.39063,-2.36328 7.29675,-4.75c1.91418,-2.39453 2.87512,-5.89844 2.87512,-10.51563c0,-3.64453 -0.57043,-6.53125 -1.70313,-8.65625c-1.125,-2.13281 -2.57825,-3.70313 -4.35938,-4.70313c-1.78125,-1 -3.65234,-1.64844 -5.6095,-1.95313c-1.96082,-0.30078 -3.71863,-0.45313 -5.28113,-0.45313l-31.95313,0zm0,0"/>
    </g>
   </g>
  </g>
  <g id="svg_65" fill="#292a61">
   <g id="svg_66">
    <g id="svg_67">
     <path id="svg_68" d="m1388.09326,970.10138l0,40.54688l-12.76563,0l0,-94.65625l43.67188,0c3.91406,0 7.71863,0.39063 11.40625,1.17188c3.69531,0.78125 7.01953,2.13281 9.96875,4.04688c2.95703,1.90625 5.328,4.51172 7.10938,7.8125c1.78906,3.30469 2.6875,7.43359 2.6875,12.39063c0,4.60547 -0.67969,8.36719 -2.03125,11.28125c-1.34375,2.90625 -3.03906,5.23047 -5.07813,6.96875c-2.04297,1.74219 -4.0625,3.21875 -6.0625,4.4375c1.03906,0.69922 2.23438,1.41797 3.57813,2.15625c1.35156,0.73047 2.66003,1.66406 3.92188,2.79688c1.25781,1.125 2.28113,2.71484 3.06238,4.76563c0.78137,2.04297 1.172,4.71484 1.172,8.01563l0,17.20313c0,2.61719 0.36719,4.55469 1.10938,5.8125c0.73828,1.26172 2.0625,2.45313 3.96863,3.57813l0,2.21875l-15.6405,0c-0.4375,-1.47656 -0.80859,-3.36719 -1.10938,-5.67188c-0.30469,-2.30078 -0.54297,-4.66406 -0.71875,-7.09375c-0.17969,-2.4375 -0.28906,-4.65625 -0.32813,-6.65625c-0.04297,-2 -0.0625,-3.4375 -0.0625,-4.3125c0,-2.60156 -0.35156,-5.1875 -1.04688,-7.75c-0.69922,-2.5625 -2.24609,-4.71094 -4.64063,-6.45313c-2.38672,-1.73828 -6.14063,-2.60938 -11.26563,-2.60938l-30.90625,0zm0,-43.15625l0,32.20313l29.60925,0c3.12512,0 6.16406,-0.39063 9.12512,-1.17188c2.95703,-0.78125 5.39063,-2.36328 7.29688,-4.75c1.91406,-2.39453 2.875,-5.89844 2.875,-10.51563c0,-3.64453 -0.57031,-6.53125 -1.70313,-8.65625c-1.125,-2.13281 -2.57825,-3.70313 -4.35938,-4.70313c-1.78137,-1 -3.65234,-1.64844 -5.60938,-1.95313c-1.96094,-0.30078 -3.71875,-0.45313 -5.28125,-0.45313l-31.95313,0zm0,0"/>
    </g>
   </g>
  </g>
  <g id="svg_69" fill="#292a61">
   <g id="svg_70">
    <g id="svg_71">
     <path id="svg_72" d="m1634.54163,915.992l12.78137,0l0,61.40625c0,6.4375 -1.37109,12.375 -4.10938,17.8125c-2.74231,5.42969 -6.91797,9.77344 -12.53125,13.03125c-5.60547,3.25781 -12.75,4.89063 -21.4375,4.89063c-8.4375,0 -15.35156,-1.60938 -20.7345,-4.82813c-5.3866,-3.21875 -9.33984,-7.41016 -11.85925,-12.57813c-2.52344,-5.17578 -3.78125,-10.67578 -3.78125,-16.5l0,-63.23438l12.76563,0l0,59.71875c0,5.125 0.71875,9.38672 2.15613,12.78125c1.43762,3.38672 3.32813,6.05859 5.67188,8.01563c2.34387,1.94922 4.94543,3.33984 7.81262,4.17188c2.875,0.82422 5.75,1.23438 8.625,1.23438c2.94519,0 5.875,-0.39063 8.78125,-1.17188c2.91394,-0.78125 5.56641,-2.14844 7.95313,-4.10938c2.39453,-1.95703 4.3125,-4.60938 5.75,-7.95313c1.43738,-3.34375 2.15613,-7.58203 2.15613,-12.71875l0,-59.96875zm-32.07813,-10.4375l-11.60925,0l0,-13.17188l11.60925,0l0,13.17188zm26.7345,0l-11.60938,0l0,-13.17188l11.60938,0l0,13.17188zm0,0"/>
    </g>
   </g>
  </g>
  <g id="svg_73" fill="#292a61">
   <g id="svg_74">
    <g id="svg_75">
     <path id="svg_76" d="m1807.96509,927.33575l0,83.3125l-12.78125,0l0,-83.3125l-32.07813,0l0,-11.34375l76.92188,0l0,11.34375l-32.0625,0zm0,0"/>
    </g>
   </g>
  </g>
  <g id="svg_77" fill="#292a61">
   <g id="svg_78">
    <g id="svg_79">
     <path id="svg_80" d="m1968.46863,915.992l0,94.65625l-12.7655,0l0,-94.65625l12.7655,0zm0,0"/>
    </g>
   </g>
  </g>
 </g>
</svg>